<svg width="21" height="22" viewBox="0 0 21 22" fill="none" xmlns="http://www.w3.org/2000/svg">
<path d="M19.5625 20.123L20.4609 16.1777C20.5391 15.8913 20.5 15.6178 20.3438 15.3574C20.2135 15.097 20.0182 14.9017 19.7578 14.7715L15.5391 12.9746C15.2786 12.8704 15.0182 12.8444 14.7578 12.8965C14.4974 12.9746 14.276 13.1178 14.0938 13.3262L12.375 15.4355C11.0208 14.7585 9.8099 13.8861 8.74219 12.8184C7.67448 11.7507 6.80208 10.5397 6.125 9.18555L8.23438 7.4668C8.44271 7.28451 8.57292 7.06315 8.625 6.80273C8.70312 6.54232 8.6901 6.2819 8.58594 6.02148L6.78906 1.80273C6.65885 1.54232 6.46354 1.33398 6.20312 1.17773C5.94271 1.04753 5.66927 1.02148 5.38281 1.09961L1.4375 1.99805C1.17708 2.07617 0.955729 2.2194 0.773438 2.42773C0.591146 2.66211 0.5 2.92253 0.5 3.20898C0.5 6.43815 1.30729 9.43294 2.92188 12.1934C4.51042 14.9017 6.64583 17.0371 9.32812 18.5996C12.1146 20.2402 15.1354 21.0605 18.3906 21.0605C18.651 21.0605 18.8854 20.9694 19.0938 20.7871C19.3281 20.6048 19.4844 20.3835 19.5625 20.123ZM1.75 3.20898L5.65625 2.31055L7.45312 6.5293L4.60156 8.83398C5.53906 10.8652 6.61979 12.4928 7.84375 13.7168C9.06771 14.9408 10.6953 16.0215 12.7266 16.959L15.0312 14.1074L19.25 15.9043L18.3516 19.8105C15.3568 19.8105 12.5703 19.0553 9.99219 17.5449C7.46615 16.0605 5.47396 14.0684 4.01562 11.5684C2.50521 8.99023 1.75 6.20378 1.75 3.20898Z" fill="#1B5694"/>
</svg>
