<svg width="20" height="19" viewBox="0 0 25 19" fill="none" xmlns="http://www.w3.org/2000/svg">
<path d="M24.3516 3.00963V16.7905C24.3516 17.6862 23.6196 18.4114 22.7156 18.4114H18.8966V9.22485L12.3516 14.0896L5.80656 9.22485V18.4124H1.98756C1.77264 18.4124 1.55982 18.3705 1.36126 18.289C1.16271 18.2074 0.982312 18.0879 0.830382 17.9373C0.678453 17.7867 0.557967 17.6079 0.475809 17.4111C0.393651 17.2143 0.351431 17.0035 0.351563 16.7905V3.00963C0.351563 1.00526 2.66056 -0.139097 4.27856 1.06372L5.80656 2.20016L12.3516 7.06295L18.8966 2.19817L20.4246 1.06372C22.0416 -0.138106 24.3516 1.00526 24.3516 3.00963Z" fill="white"/>
</svg>
