<svg width="21" height="17" viewBox="0 0 21 17" fill="none" xmlns="http://www.w3.org/2000/svg">
<path d="M6.83769 16.4123C14.3847 16.4123 18.5137 10.2109 18.5137 4.84283C18.5137 4.66845 18.5137 4.49407 18.5057 4.31969C19.3098 3.74239 20.0036 3.02776 20.5547 2.20931C19.8043 2.5378 19.0091 2.75448 18.1947 2.85234C19.0527 2.34336 19.6952 1.54313 20.0027 0.600272C19.1962 1.07432 18.3133 1.40714 17.3927 1.58413C17.0095 1.17847 16.5463 0.855109 16.0318 0.634063C15.5173 0.413016 14.9625 0.298998 14.4017 0.299072C13.313 0.29986 12.269 0.728723 11.4992 1.49148C10.7293 2.25424 10.2965 3.28854 10.2957 4.36725C10.2957 4.6843 10.3357 4.99343 10.3997 5.29463C8.76758 5.21342 7.17096 4.79304 5.71347 4.06077C4.25599 3.3285 2.97024 2.30071 1.93969 1.04415C1.41597 1.94037 1.2561 3.00046 1.49252 4.00922C1.72895 5.01798 2.34395 5.8998 3.21269 6.47565C2.56176 6.45332 1.92528 6.27954 1.35469 5.96837V6.02385C1.35557 6.96243 1.68342 7.87193 2.28285 8.5987C2.88228 9.32548 3.71654 9.82496 4.64469 10.0128C4.29294 10.1089 3.92957 10.1569 3.56469 10.1554C3.29969 10.1554 3.04369 10.1317 2.79469 10.0841C3.05632 10.8924 3.5667 11.5993 4.25427 12.1057C4.94183 12.6121 5.77211 12.8926 6.62869 12.9079C5.17524 14.0399 3.37945 14.6541 1.53069 14.6516C1.20269 14.6516 0.874687 14.6358 0.554688 14.5962C2.4314 15.7827 4.61142 16.4129 6.83769 16.4123Z" fill="white"/>
</svg>
