<svg width="13" height="20" viewBox="0 0 13 20" fill="none" xmlns="http://www.w3.org/2000/svg">
<path d="M12.2867 1.04277C12.2867 0.903574 12.2309 0.770078 12.1316 0.67165C12.0322 0.573222 11.8975 0.517925 11.757 0.517925H9.1084C7.77468 0.4521 6.46889 0.911972 5.47632 1.79706C4.48374 2.68215 3.88509 3.9205 3.81116 5.24155V8.07572H1.16254C1.02205 8.07572 0.887308 8.13102 0.787965 8.22945C0.688623 8.32788 0.632812 8.46137 0.632812 8.60057V11.3298C0.632812 11.469 0.688623 11.6025 0.787965 11.7009C0.887308 11.7993 1.02205 11.8546 1.16254 11.8546H3.81116V18.8876C3.81116 19.0268 3.86697 19.1603 3.96631 19.2587C4.06565 19.3571 4.20039 19.4124 4.34088 19.4124H7.51923C7.65972 19.4124 7.79446 19.3571 7.8938 19.2587C7.99314 19.1603 8.04895 19.0268 8.04895 18.8876V11.8546H10.8247C10.9425 11.8563 11.0575 11.819 11.1515 11.7487C11.2455 11.6783 11.3132 11.579 11.3438 11.4662L12.1066 8.73703C12.1277 8.65948 12.1305 8.57817 12.1149 8.49937C12.0993 8.42056 12.0656 8.34636 12.0165 8.28248C11.9674 8.2186 11.9041 8.16674 11.8316 8.13089C11.759 8.09505 11.6792 8.07617 11.5981 8.07572H8.04895V5.24155C8.0753 4.98172 8.19845 4.74096 8.39436 4.56627C8.59026 4.39159 8.84484 4.29552 9.1084 4.29682H11.757C11.8975 4.29682 12.0322 4.24153 12.1316 4.1431C12.2309 4.04467 12.2867 3.91118 12.2867 3.77198V1.04277Z" fill="white"/>
</svg>
