<svg width="21" height="20" viewBox="0 0 21 20" fill="none" xmlns="http://www.w3.org/2000/svg">
<path d="M20.4277 12.1029V19.4139H16.1497V12.5923C16.1497 10.8783 15.5307 9.70913 13.9827 9.70913C12.8007 9.70913 12.0967 10.4978 11.7877 11.2597C11.6747 11.5322 11.6457 11.9117 11.6457 12.2931V19.4139H7.36575C7.36575 19.4139 7.42375 7.86131 7.36575 6.66344H11.6457V8.47064L11.6177 8.51226H11.6457V8.47064C12.2137 7.6037 13.2287 6.36422 15.5017 6.36422C18.3167 6.36422 20.4277 8.18728 20.4277 12.1029ZM2.88975 0.517578C1.42675 0.517578 0.46875 1.46874 0.46875 2.7201C0.46875 3.94373 1.39875 4.92362 2.83375 4.92362H2.86175C4.35475 4.92362 5.28175 3.94373 5.28175 2.7201C5.25575 1.46874 4.35575 0.517578 2.89075 0.517578H2.88975ZM0.72275 19.4139H5.00075V6.66344H0.72275V19.4139Z" fill="white"/>
</svg>
