<svg width="15" height="15" viewBox="0 0 15 15" fill="none" xmlns="http://www.w3.org/2000/svg">
<path d="M0.863281 13.8613C0.863281 14.1725 1.11465 14.4238 1.42578 14.4238H14.3633C14.6744 14.4238 14.9258 14.1725 14.9258 13.8613V6.47852H0.863281V13.8613ZM14.3633 1.62695H11.4102V0.501953C11.4102 0.424609 11.3469 0.361328 11.2695 0.361328H10.2852C10.2078 0.361328 10.1445 0.424609 10.1445 0.501953V1.62695H5.64453V0.501953C5.64453 0.424609 5.58125 0.361328 5.50391 0.361328H4.51953C4.44219 0.361328 4.37891 0.424609 4.37891 0.501953V1.62695H1.42578C1.11465 1.62695 0.863281 1.87832 0.863281 2.18945V5.2832H14.9258V2.18945C14.9258 1.87832 14.6744 1.62695 14.3633 1.62695Z" fill="#1B5694"/>
</svg>
