<svg width="131" height="109" viewBox="0 0 131 109" fill="none" xmlns="http://www.w3.org/2000/svg">
<path d="M117.032 32.8137L110.153 8.16789C109.498 5.90808 108.129 3.92129 106.25 2.50529C104.371 1.0893 102.084 0.320355 99.7309 0.313721H32.0659C29.7142 0.321525 27.4282 1.091 25.5504 2.50692C23.6726 3.92283 22.3041 5.90897 21.6497 8.16789L14.608 32.8137H0.898438V43.6471H11.7318V81.5637C11.7346 84.436 12.8769 87.1899 14.9079 89.2209C16.939 91.2519 19.6928 92.3942 22.5651 92.3971V108.647H33.3984V92.3971H98.3984V108.647H109.232V92.3971C112.104 92.3942 114.858 91.2519 116.889 89.2209C118.92 87.1899 120.062 84.436 120.065 81.5637V43.6471H130.898V32.8137H117.032ZM32.0714 11.1471H99.7364L107.471 38.2304H24.3309L32.0714 11.1471ZM109.232 70.7304V81.5637H22.5651V70.7304H33.3984V59.8971H22.5651V49.0637H109.232V59.8971H98.3984V70.7304H109.232Z" fill="url(#paint0_linear_243_590)"/>
<defs>
<linearGradient id="paint0_linear_243_590" x1="65.8984" y1="0.313721" x2="65.8984" y2="108.647" gradientUnits="userSpaceOnUse">
<stop stop-color="#1B5694"/>
<stop offset="1" stop-color="#00A3FF"/>
</linearGradient>
</defs>
</svg>
