<svg width="131" height="123" viewBox="0 0 131 123" fill="none" xmlns="http://www.w3.org/2000/svg">
<path d="M36.3181 79.4818H101.318C105.29 79.4818 108.54 82.7318 108.54 86.704C108.54 90.6762 105.29 93.9262 101.318 93.9262H29.0959C25.1237 93.9262 21.8737 90.6762 21.8737 86.704V14.4818H7.42925C3.45703 14.4818 0.207031 11.2318 0.207031 7.25958C0.207031 3.28735 3.45703 0.0373535 7.42925 0.0373535H29.0959C33.0681 0.0373535 36.3181 3.28735 36.3181 7.25958V21.704H130.207L101.318 72.2596H36.3181V79.4818ZM32.707 101.148C38.7015 101.148 43.5404 105.987 43.5404 111.982C43.5404 117.976 38.7015 122.815 32.707 122.815C26.7126 122.815 21.8737 117.976 21.8737 111.982C21.8737 105.987 26.7126 101.148 32.707 101.148ZM97.707 101.148C103.701 101.148 108.54 105.987 108.54 111.982C108.54 117.976 103.701 122.815 97.707 122.815C91.7126 122.815 86.8737 117.976 86.8737 111.982C86.8737 105.987 91.7126 101.148 97.707 101.148Z" fill="url(#paint0_linear_243_596)"/>
<defs>
<linearGradient id="paint0_linear_243_596" x1="65.207" y1="0.0373535" x2="65.207" y2="122.815" gradientUnits="userSpaceOnUse">
<stop stop-color="#1B5694"/>
<stop offset="1" stop-color="#00A3FF"/>
</linearGradient>
</defs>
</svg>
