<svg width="68" height="99" viewBox="0 0 68 99" fill="none" xmlns="http://www.w3.org/2000/svg">
<path d="M67.5859 12.2874V0.0373535H0.210938V12.2874H21.6484C29.6232 12.2874 36.3546 17.4201 38.8903 24.5374H0.210938V36.7874H38.8903C37.633 40.3597 35.3006 43.4551 32.2134 45.6485C29.1261 47.8419 25.4355 49.0257 21.6484 49.0374H0.210938V63.8231L34.4252 98.0374H51.7467L14.9967 61.2874H21.6484C28.7042 61.2779 35.5409 58.8358 41.0058 54.3728C46.4708 49.9098 50.2296 43.699 51.6487 36.7874H67.5859V24.5374H51.6487C50.7098 20.0796 48.7751 15.8918 45.9892 12.2874H67.5859Z" fill="url(#paint0_linear_243_599)"/>
<defs>
<linearGradient id="paint0_linear_243_599" x1="33.8984" y1="0.0373535" x2="33.8984" y2="98.0374" gradientUnits="userSpaceOnUse">
<stop stop-color="#1B5694"/>
<stop offset="1" stop-color="#00A3FF"/>
</linearGradient>
</defs>
</svg>
