<svg width="132" height="131" viewBox="0 0 132 131" fill="none" xmlns="http://www.w3.org/2000/svg">
<path fill-rule="evenodd" clip-rule="evenodd" d="M130.329 5.77381L126.771 5.20796L125.838 1.72634L131.205 0.284668L130.332 5.77381H130.329ZM82.6817 55.6195L79.6145 57.508L79.6073 57.5008L79.5965 57.4828L79.5605 57.4251L79.4379 57.2197C79.337 57.0467 79.1856 56.7944 79.0054 56.4736C78.5004 55.5912 78.0138 54.6984 77.5457 53.7957C76.0644 50.9584 74.7713 48.0267 73.6749 45.0196C72.4567 41.6173 71.4115 37.7212 71.2493 33.9512C71.0907 30.1957 71.7899 26.1193 74.5867 22.9224C77.0988 20.0535 81.8347 17.4117 86.812 15.1266C91.9696 12.7515 98.039 10.4736 103.788 8.50217C110.908 6.07035 118.101 3.85398 125.355 1.85608L125.715 1.75517L125.842 1.71913L126.779 5.20436L130.336 5.77021L130.314 5.90357L130.253 6.28561C129.893 8.4967 129.516 10.7049 129.121 12.9101C128.161 18.3329 127.113 23.7399 125.979 29.1288C124.695 35.1874 123.203 41.538 121.621 46.8541C120.832 49.5104 120.003 51.9648 119.145 54.0264C118.323 56.0087 117.35 57.9333 116.168 59.2885C113.638 62.179 109.699 63.0837 106.257 63.3144C102.667 63.5558 98.6878 63.1197 95.1088 62.4854C91.917 61.9104 88.7559 61.1766 85.6371 60.2869C84.361 59.9274 83.0921 59.5429 81.8311 59.1335L81.604 59.0542L81.5428 59.0326L81.5247 59.029H81.5175L82.6853 55.6158L82.6817 55.6195ZM82.6817 55.6195L79.6145 57.508L80.2921 58.6073L81.5175 59.029L82.6817 55.6195ZM85.1037 52.6172C88.7936 53.7689 92.5501 54.6957 96.3523 55.3924C99.6825 55.9799 103.013 56.3115 105.774 56.124C108.689 55.9294 110.153 55.2158 110.74 54.5454C111.115 54.1129 111.728 53.0893 112.485 51.2656C113.209 49.5248 113.959 47.3299 114.708 44.8033C116.211 39.7575 117.657 33.6196 118.925 27.6403C120.143 21.8554 121.258 16.0493 122.27 10.225L121.156 10.5493C117.159 11.7279 111.76 13.3894 106.127 15.3213C100.483 17.2567 94.6691 19.4444 89.8215 21.6754C84.7901 23.9893 81.395 26.0905 80.011 27.6727C78.9045 28.9342 78.3351 30.8768 78.454 33.6412C78.5693 36.3912 79.3586 39.516 80.4615 42.5832C81.55 45.6179 82.8763 48.4219 83.9431 50.4763C84.3937 51.3413 84.7937 52.0694 85.1037 52.6172ZM16.1596 14.8455L15.2261 18.3271L11.6652 18.893L10.793 13.4074L16.1632 14.8491L16.1596 14.8455ZM51.0551 59.2957L54.1223 61.1807L54.1295 61.1735L54.1367 61.1591L54.1655 61.1122L54.27 60.9392C54.8135 60.0134 55.3327 59.0736 55.827 58.1208C56.7785 56.2898 57.9931 53.7345 59.0095 50.9088C60.0115 48.112 60.8837 44.8718 61.017 41.7146C61.154 38.5681 60.5701 35.0577 58.1409 32.2825C55.9928 29.8244 52.0174 27.6331 47.9808 25.7733C43.7603 23.8307 38.8046 21.9709 34.1227 20.3671C28.3241 18.3866 22.467 16.5813 16.5596 14.9536L16.2641 14.8743L16.1596 14.8455L15.2261 18.3271L11.6652 18.893L11.6832 19.0011L11.7337 19.3147L11.9283 20.4896C12.9008 26.3195 13.9955 32.1283 15.2117 37.9122C16.2569 42.8427 17.4751 48.0219 18.7654 52.3649C19.4141 54.5346 20.0917 56.5565 20.8017 58.2613C21.4757 59.8832 22.3011 61.5375 23.3391 62.7197C25.5737 65.2786 29.0084 66.0355 31.8521 66.2229C34.8508 66.4247 38.1414 66.0607 41.0788 65.5453C44.7669 64.8832 48.404 63.963 51.9634 62.7917L52.1472 62.7305L52.2012 62.7125L52.2193 62.7052L51.0551 59.2957ZM51.0551 59.2957L54.1223 61.1807L53.4447 62.2836L52.2193 62.7052L51.0551 59.2957ZM48.6295 56.2898C50.0378 53.7873 51.2396 51.174 52.2229 48.476C53.1059 46.0143 53.7258 43.5455 53.8159 41.4046C53.9096 39.2493 53.4555 37.8725 52.7166 37.0256C51.6967 35.865 49.0656 34.2071 44.9677 32.3221C41.0608 30.5236 36.3609 28.754 31.7836 27.1862C27.7962 25.8249 23.7803 24.5488 19.7385 23.3586L19.7529 23.4487C20.3656 26.9087 21.2378 31.5797 22.265 36.4201C23.2922 41.2713 24.4636 46.2342 25.6746 50.3105C26.2837 52.3505 26.882 54.1129 27.4586 55.4969C28.0713 56.9638 28.5327 57.7099 28.7633 57.9766C29.0589 58.3118 30.014 58.8776 32.3351 59.0326C34.5012 59.1768 37.1466 58.9173 39.8281 58.4451C42.8039 57.9087 45.7433 57.1877 48.6295 56.2862V56.2898ZM40.7364 90.652C39.8209 90.7024 39.374 90.8322 39.2587 90.8826C37.626 91.6215 32.6667 93.3515 28.3849 94.8112C26.1864 95.5644 24.0779 96.2709 22.5209 96.7935L22.42 96.8295V116.303C23.0543 116.274 23.7355 116.249 24.4311 116.224C27.4154 116.115 30.9655 116.007 32.5045 116.072C38.9631 116.328 43.8143 117.856 48.3051 119.273L48.4024 119.305C52.6121 120.631 56.5118 121.85 61.6189 122.235C63.0606 122.343 64.4626 122.484 65.7709 122.614H65.789C70.8132 123.118 74.1218 123.371 76.6843 122.441C78.6774 121.716 85.9759 118.332 93.3356 114.63C96.9758 112.8 100.544 110.936 103.38 109.34C104.804 108.539 106.011 107.826 106.938 107.228C107.399 106.928 107.767 106.676 108.048 106.471C108.158 106.39 108.266 106.306 108.372 106.218L108.473 106.132C108.834 105.768 109.216 104.499 108.596 103.306C108.304 102.748 107.822 102.314 107.237 102.081C106.516 101.767 105.291 101.526 103.344 101.847C98.9545 102.567 93.7104 104.679 88.4736 106.809L88.4015 106.842C85.8281 107.887 83.2475 108.936 80.9589 109.7C78.7603 110.432 76.3203 111.088 74.1939 110.961C71.2745 110.781 66.153 110.024 61.9289 109.34C59.5014 108.947 57.0769 108.536 54.6557 108.107L54.1871 108.024L54.0213 107.992L54.7061 100.841L71.1772 101.039H71.2132C71.4056 101.018 71.596 100.982 71.7827 100.931C72.3521 100.787 73.3289 100.43 74.5579 99.5615C74.9363 99.2912 75.4337 98.7938 75.8986 98.127C76.0897 97.8495 76.2519 97.5756 76.3888 97.3125C74.3806 97.1847 72.3853 96.9027 70.4203 96.4691C69.3503 96.2361 68.2888 95.9657 67.2378 95.6581L67.1153 95.6221L46.9428 91.1313L46.7517 91.0989C45.6778 90.9206 44.5968 90.7883 43.5116 90.7024C42.5886 90.6258 41.6616 90.609 40.7364 90.652ZM47.6492 87.5992L48.3015 84.0563L48.3664 84.0672L68.975 88.6516L69.1264 88.6985L69.1552 88.7093L69.2922 88.749L69.8617 88.9112C70.3626 89.0481 71.0835 89.2355 71.9413 89.4229C73.6929 89.8014 75.8842 90.151 77.9098 90.151C79.9389 90.151 82.1447 90.9079 83.334 93.0632C84.3504 94.9085 84.0981 96.9052 83.7413 98.2243C83.4101 99.3906 82.9163 100.504 82.2744 101.533C83.3701 101.1 84.5342 100.632 85.756 100.135L85.9795 100.041C90.946 98.0225 96.9001 95.6005 102.173 94.7319C108.3 93.7299 112.895 95.9285 114.997 99.994C116.849 103.58 116.438 108.309 113.609 111.185C112.899 111.906 111.843 112.637 110.834 113.29C109.738 113.993 108.397 114.785 106.912 115.622C103.939 117.294 100.259 119.215 96.5685 121.071C89.2809 124.737 81.604 128.323 79.1388 129.217C74.8642 130.766 69.9193 130.273 65.5258 129.833L65.0681 129.786C63.7385 129.65 62.4073 129.53 61.0747 129.426C55.0918 128.971 50.5073 127.526 46.3192 126.207L46.2291 126.178C41.7239 124.758 37.6656 123.493 32.2161 123.273C31.0196 123.226 27.7974 123.313 24.6906 123.428C22.9411 123.492 21.1919 123.563 19.443 123.641L18.978 123.663L15.2081 123.836V91.6287L18.3689 90.5799C20.9337 89.7275 23.4951 88.8649 26.053 87.9921C30.5366 86.4603 35.0562 84.8709 36.2888 84.3158C37.6116 83.7175 39.1145 83.5229 40.3183 83.4508C41.5978 83.3788 42.9133 83.4328 44.063 83.5193C45.447 83.6276 46.8252 83.7996 48.1934 84.0347L48.2691 84.0491H48.2907L48.2979 84.0527H48.3051L47.6492 87.5992Z" fill="url(#paint0_linear_269_111)"/>
<path fill-rule="evenodd" clip-rule="evenodd" d="M105.856 26.6169C106.216 26.9245 106.512 27.3 106.726 27.7219C106.941 28.1438 107.07 28.6038 107.107 29.0757C107.144 29.5476 107.087 30.0222 106.941 30.4722C106.794 30.9223 106.56 31.3391 106.253 31.6988C95.5088 44.2341 82.1337 62.6045 76.2301 77.5366C76.0559 77.9767 75.7967 78.3783 75.4674 78.7183C75.138 79.0583 74.7449 79.3301 74.3105 79.5182C73.8761 79.7063 73.4088 79.807 72.9355 79.8145C72.4622 79.822 71.992 79.7363 71.5519 79.5621C71.1117 79.3879 70.7101 79.1288 70.3701 78.7994C70.0301 78.47 69.7583 78.0769 69.5702 77.6425C69.3821 77.2081 69.2814 76.7409 69.2739 76.2676C69.2664 75.7942 69.3521 75.3241 69.5263 74.8839C75.8805 58.8129 89.8935 39.7072 100.774 27.0098C101.397 26.2843 102.282 25.8357 103.235 25.7627C104.188 25.6897 105.131 25.9983 105.856 26.6205V26.6169Z" fill="url(#paint1_linear_269_111)"/>
<path fill-rule="evenodd" clip-rule="evenodd" d="M34.6055 38.179C34.2339 38.4723 33.9236 38.836 33.6926 39.2493C33.4615 39.6626 33.3142 40.1174 33.259 40.5877C33.2037 41.0579 33.2417 41.5345 33.3707 41.99C33.4997 42.4456 33.7173 42.8713 34.0109 43.2428C42.0914 53.4967 50.9144 66.6194 55.1024 77.504C55.462 78.3728 56.1468 79.0666 57.0108 79.4375C57.8747 79.8085 58.8494 79.8271 59.7269 79.4894C60.6044 79.1518 61.3153 78.4846 61.7078 77.6302C62.1002 76.7759 62.1433 75.8019 61.8278 74.9162C57.2469 63.0081 47.8869 49.2005 39.6694 38.7809C39.0781 38.0302 38.2128 37.5451 37.2639 37.4322C36.315 37.3194 35.3601 37.588 34.6091 38.179H34.6055Z" fill="url(#paint2_linear_269_111)"/>
<path d="M0.796875 83.4182H22.4219V130.272H0.796875V83.4182Z" fill="url(#paint3_linear_269_111)"/>
<defs>
<linearGradient id="paint0_linear_269_111" x1="70.9988" y1="0.284668" x2="70.9988" y2="130.271" gradientUnits="userSpaceOnUse">
<stop stop-color="#1B5694"/>
<stop offset="1" stop-color="#00A3FF"/>
</linearGradient>
<linearGradient id="paint1_linear_269_111" x1="88.1957" y1="25.7522" x2="88.1957" y2="79.815" gradientUnits="userSpaceOnUse">
<stop stop-color="#1B5694"/>
<stop offset="1" stop-color="#00A3FF"/>
</linearGradient>
<linearGradient id="paint2_linear_269_111" x1="47.6356" y1="37.407" x2="47.6356" y2="79.7299" gradientUnits="userSpaceOnUse">
<stop stop-color="#1B5694"/>
<stop offset="1" stop-color="#00A3FF"/>
</linearGradient>
<linearGradient id="paint3_linear_269_111" x1="11.6094" y1="83.4182" x2="11.6094" y2="130.272" gradientUnits="userSpaceOnUse">
<stop stop-color="#1B5694"/>
<stop offset="1" stop-color="#00A3FF"/>
</linearGradient>
</defs>
</svg>
