<svg width="101" height="114" viewBox="0 0 101 114" fill="none" xmlns="http://www.w3.org/2000/svg">
<path d="M31.2513 52.7041C25.5049 52.7041 19.9939 50.4214 15.9307 46.3581C11.8674 42.2948 9.58464 36.7838 9.58464 31.0374V13.7041C9.58464 12.5548 10.0412 11.4526 10.8538 10.64C11.6665 9.82732 12.7687 9.37077 13.918 9.37077H18.2513C19.4006 9.37077 20.5028 8.91422 21.3154 8.10156C22.1281 7.28891 22.5846 6.18671 22.5846 5.03744C22.5846 3.88816 22.1281 2.78596 21.3154 1.97331C20.5028 1.16065 19.4006 0.704102 18.2513 0.704102H13.918C10.4702 0.704102 7.16355 2.07374 4.72558 4.51171C2.28761 6.94969 0.917969 10.2563 0.917969 13.7041V31.0374C0.923539 35.933 2.11731 40.754 4.39677 45.0865C6.67622 49.4189 9.97323 53.1334 14.0046 55.9108C17.8779 59.3256 21.019 63.4898 23.2385 68.1521C25.4579 72.8144 26.7096 77.878 26.918 83.0374C26.918 91.0823 30.1138 98.7977 35.8024 104.486C41.491 110.175 49.2064 113.371 57.2513 113.371C65.2962 113.371 73.0116 110.175 78.7002 104.486C84.3888 98.7977 87.5846 91.0823 87.5846 83.0374V78.0974C91.6695 77.0427 95.2295 74.5344 97.5973 71.0427C99.965 67.551 100.978 63.3156 100.446 59.1304C99.9149 54.9452 97.8752 51.0976 94.7097 48.3087C91.5441 45.5198 87.4701 43.9812 83.2513 43.9812C79.0325 43.9812 74.9585 45.5198 71.793 48.3087C68.6274 51.0976 66.5877 54.9452 66.0561 59.1304C65.5245 63.3156 66.5376 67.551 68.9054 71.0427C71.2732 74.5344 74.8331 77.0427 78.918 78.0974V83.0374C78.918 88.7838 76.6352 94.2948 72.572 98.3581C68.5087 102.421 62.9977 104.704 57.2513 104.704C51.505 104.704 45.9939 102.421 41.9307 98.3581C37.8674 94.2948 35.5846 88.7838 35.5846 83.0374C35.804 77.8716 37.0692 72.8041 39.3037 68.1414C41.5382 63.4787 44.6956 59.3179 48.5846 55.9108C52.6 53.1237 55.8802 49.4051 58.1442 45.0732C60.4083 40.7413 61.5888 35.9253 61.5846 31.0374V13.7041C61.5846 10.2563 60.215 6.94969 57.777 4.51171C55.3391 2.07374 52.0325 0.704102 48.5846 0.704102H44.2513C43.102 0.704102 41.9998 1.16065 41.1872 1.97331C40.3745 2.78596 39.918 3.88816 39.918 5.03744C39.918 6.18671 40.3745 7.28891 41.1872 8.10156C41.9998 8.91422 43.102 9.37077 44.2513 9.37077H48.5846C49.7339 9.37077 50.8361 9.82732 51.6488 10.64C52.4614 11.4526 52.918 12.5548 52.918 13.7041V31.0374C52.918 33.8827 52.3576 36.7002 51.2687 39.3289C50.1798 41.9576 48.5839 44.3461 46.572 46.3581C44.56 48.37 42.1715 49.966 39.5428 51.0548C36.9141 52.1437 34.0966 52.7041 31.2513 52.7041ZM83.2513 70.0374C80.9528 70.0374 78.7484 69.1243 77.1231 67.499C75.4977 65.8737 74.5846 63.6693 74.5846 61.3708C74.5846 59.0722 75.4977 56.8678 77.1231 55.2425C78.7484 53.6172 80.9528 52.7041 83.2513 52.7041C85.5499 52.7041 87.7543 53.6172 89.3796 55.2425C91.0049 56.8678 91.918 59.0722 91.918 61.3708C91.918 63.6693 91.0049 65.8737 89.3796 67.499C87.7543 69.1243 85.5499 70.0374 83.2513 70.0374Z" fill="url(#paint0_linear_243_602)"/>
<defs>
<linearGradient id="paint0_linear_243_602" x1="50.7513" y1="0.704102" x2="50.7513" y2="113.371" gradientUnits="userSpaceOnUse">
<stop stop-color="#1B5694"/>
<stop offset="1" stop-color="#00A3FF"/>
</linearGradient>
</defs>
</svg>
