<svg width="19" height="25" viewBox="0 0 19 25" fill="none" xmlns="http://www.w3.org/2000/svg">
<path d="M9.39323 24.039C7.76178 22.6474 6.24956 21.1217 4.8724 19.4781C2.80573 17.0097 0.351564 13.3336 0.351564 9.83063C0.350667 8.04162 0.880512 6.29255 1.87404 4.80478C2.86757 3.31702 4.28013 2.15742 5.93294 1.47276C7.58576 0.788101 9.40453 0.609145 11.1591 0.958543C12.9136 1.30794 14.5251 2.16999 15.7896 3.43558C16.6314 4.27369 17.2987 5.27044 17.7528 6.36815C18.2068 7.46586 18.4387 8.64272 18.4349 9.83063C18.4349 13.3336 15.9807 17.0097 13.9141 19.4781C12.5369 21.1217 11.0247 22.6474 9.39323 24.039ZM9.39323 5.95563C8.36552 5.95563 7.3799 6.36388 6.65319 7.09059C5.92649 7.81729 5.51823 8.80291 5.51823 9.83063C5.51823 10.8583 5.92649 11.844 6.65319 12.5707C7.3799 13.2974 8.36552 13.7056 9.39323 13.7056C10.4209 13.7056 11.4066 13.2974 12.1333 12.5707C12.86 11.844 13.2682 10.8583 13.2682 9.83063C13.2682 8.80291 12.86 7.81729 12.1333 7.09059C11.4066 6.36388 10.4209 5.95563 9.39323 5.95563Z" fill="white"/>
</svg>
