<svg width="15" height="21" viewBox="0 0 15 21" fill="none" xmlns="http://www.w3.org/2000/svg">
<path d="M7.5 4.31055C6.45833 4.31055 5.57292 4.67513 4.84375 5.4043C4.11458 6.13346 3.75 7.01888 3.75 8.06055C3.75 9.10221 4.11458 9.98763 4.84375 10.7168C5.57292 11.446 6.45833 11.8105 7.5 11.8105C8.54167 11.8105 9.42708 11.446 10.1562 10.7168C10.8854 9.98763 11.25 9.10221 11.25 8.06055C11.25 7.01888 10.8854 6.13346 10.1562 5.4043C9.42708 4.67513 8.54167 4.31055 7.5 4.31055ZM7.5 10.5605C6.82292 10.5605 6.23698 10.3132 5.74219 9.81836C5.2474 9.32357 5 8.73763 5 8.06055C5 7.38346 5.2474 6.79753 5.74219 6.30273C6.23698 5.80794 6.82292 5.56055 7.5 5.56055C8.17708 5.56055 8.76302 5.80794 9.25781 6.30273C9.7526 6.79753 10 7.38346 10 8.06055C10 8.73763 9.7526 9.32357 9.25781 9.81836C8.76302 10.3132 8.17708 10.5605 7.5 10.5605ZM7.5 0.560547C6.14583 0.560547 4.89583 0.899089 3.75 1.57617C2.60417 2.25326 1.69271 3.16471 1.01562 4.31055C0.338542 5.45638 0 6.70638 0 8.06055C0 8.89388 0.104167 9.63607 0.3125 10.2871C0.520833 10.9121 0.924479 11.6934 1.52344 12.6309C1.9401 13.2819 2.79948 14.5449 4.10156 16.4199L6.71875 20.1699C6.90104 20.4303 7.16146 20.5605 7.5 20.5605C7.83854 20.5605 8.09896 20.4303 8.28125 20.1699L10.8984 16.4199C12.2005 14.5449 13.0599 13.2819 13.4766 12.6309C14.0755 11.6934 14.4792 10.9121 14.6875 10.2871C14.8958 9.63607 15 8.89388 15 8.06055C15 6.70638 14.6615 5.45638 13.9844 4.31055C13.3073 3.16471 12.3958 2.25326 11.25 1.57617C10.1042 0.899089 8.85417 0.560547 7.5 0.560547ZM7.5 19.0762C6.875 18.1647 6.06771 17.0059 5.07812 15.5996C3.82812 13.8027 3.00781 12.6178 2.61719 12.0449C2.07031 11.1595 1.70573 10.4564 1.52344 9.93555C1.34115 9.38867 1.25 8.76367 1.25 8.06055C1.25 7.22721 1.40625 6.43294 1.71875 5.67773C2.03125 4.92253 2.48698 4.24544 3.08594 3.64648C3.6849 3.04753 4.36198 2.5918 5.11719 2.2793C5.8724 1.9668 6.66667 1.81055 7.5 1.81055C8.33333 1.81055 9.1276 1.9668 9.88281 2.2793C10.638 2.5918 11.3151 3.04753 11.9141 3.64648C12.513 4.24544 12.9688 4.92253 13.2812 5.67773C13.5938 6.43294 13.75 7.22721 13.75 8.06055C13.75 8.76367 13.6589 9.38867 13.4766 9.93555C13.2943 10.4564 12.9297 11.1595 12.3828 12.0449C11.9922 12.6178 11.1719 13.8027 9.92188 15.5996L7.5 19.0762Z" fill="#1B5694"/>
</svg>
