<svg width="23" height="18" viewBox="0 0 23 18" fill="none" xmlns="http://www.w3.org/2000/svg">
<path d="M21.5898 0.690918H1.27734C0.845215 0.690918 0.496094 1.04004 0.496094 1.47217V17.0972C0.496094 17.5293 0.845215 17.8784 1.27734 17.8784H21.5898C22.022 17.8784 22.3711 17.5293 22.3711 17.0972V1.47217C22.3711 1.04004 22.022 0.690918 21.5898 0.690918ZM19.6172 3.34961L11.9146 9.34326C11.7241 9.49219 11.458 9.49219 11.2676 9.34326L3.5625 3.34961C3.53345 3.32719 3.51215 3.29625 3.50157 3.26112C3.491 3.22599 3.49168 3.18843 3.50352 3.1537C3.51537 3.11898 3.53778 3.08883 3.56762 3.06748C3.59746 3.04614 3.63323 3.03466 3.66992 3.03467H19.5098C19.5465 3.03466 19.5822 3.04614 19.6121 3.06748C19.6419 3.08883 19.6643 3.11898 19.6762 3.1537C19.688 3.18843 19.6887 3.22599 19.6781 3.26112C19.6675 3.29625 19.6462 3.32719 19.6172 3.34961V3.34961Z" fill="white"/>
</svg>
