<svg width="20" height="16" viewBox="0 0 20 16" fill="none" xmlns="http://www.w3.org/2000/svg">
<path d="M18.125 0.0605469L1.875 0.0605469C1.35417 0.0605469 0.911458 0.242839 0.546875 0.607422C0.182292 0.972005 0 1.41471 0 1.93555L0 13.1855C0 13.7064 0.182292 14.1491 0.546875 14.5137C0.911458 14.8783 1.35417 15.0605 1.875 15.0605H18.125C18.6458 15.0605 19.0885 14.8783 19.4531 14.5137C19.8177 14.1491 20 13.7064 20 13.1855V1.93555C20 1.41471 19.8177 0.972005 19.4531 0.607422C19.0885 0.242839 18.6458 0.0605469 18.125 0.0605469ZM1.875 1.31055L18.125 1.31055C18.3073 1.31055 18.4505 1.37565 18.5547 1.50586C18.6849 1.61003 18.75 1.75326 18.75 1.93555V3.53711C17.8385 4.31836 15.8724 5.9069 12.8516 8.30273L12.4609 8.61523C11.9401 9.05794 11.5365 9.37044 11.25 9.55273C10.7552 9.89128 10.3385 10.0605 10 10.0605C9.66146 10.0605 9.24479 9.89128 8.75 9.55273C8.4375 9.37044 8.02083 9.05794 7.5 8.61523L7.14844 8.30273C4.1276 5.9069 2.16146 4.31836 1.25 3.53711V1.93555C1.25 1.75326 1.30208 1.61003 1.40625 1.50586C1.53646 1.37565 1.69271 1.31055 1.875 1.31055ZM18.125 13.8105H1.875C1.69271 13.8105 1.53646 13.7585 1.40625 13.6543C1.30208 13.5241 1.25 13.3678 1.25 13.1855L1.25 5.17773C2.16146 5.9069 3.86719 7.27409 6.36719 9.2793L6.75781 9.5918C7.35677 10.1126 7.85156 10.4902 8.24219 10.7246C8.89323 11.1152 9.47917 11.3105 10 11.3105C10.5208 11.3105 11.1068 11.1152 11.7578 10.7246C12.1224 10.4902 12.6172 10.1126 13.2422 9.5918L13.6328 9.2793C16.1328 7.27409 17.8385 5.9069 18.75 5.17773V13.1855C18.75 13.3678 18.6849 13.5241 18.5547 13.6543C18.4505 13.7585 18.3073 13.8105 18.125 13.8105Z" fill="#1B5694"/>
</svg>
