<svg width="1129" height="503" viewBox="0 0 1129 503" fill="none" xmlns="http://www.w3.org/2000/svg">
<g filter="url(#filter0_d_211_198)">
<rect x="169.965" y="336.455" width="208.504" height="208.504" transform="rotate(-45 169.965 336.455)" fill="url(#paint0_linear_211_198)"/>
</g>
<path d="M303.032 274.197V277.537H292.216V277.08C293.208 275.869 294.341 274.337 295.614 272.486C296.896 270.626 297.704 269.306 298.04 268.525C298.376 267.744 298.544 266.986 298.544 266.251C298.544 265.611 298.329 265.06 297.9 264.599C297.478 264.138 296.966 263.908 296.364 263.908C295.169 263.908 293.857 264.587 292.427 265.947V262.513C294.028 261.474 295.556 260.955 297.009 260.955C298.618 260.955 299.884 261.369 300.806 262.197C301.735 263.025 302.2 264.162 302.2 265.607C302.2 267.583 300.72 270.447 297.759 274.197H303.032ZM310.802 260.955C312.536 260.955 313.888 261.701 314.857 263.193C315.833 264.685 316.321 266.712 316.321 269.275C316.321 271.939 315.849 274.017 314.903 275.509C313.958 277.001 312.607 277.748 310.849 277.748C309.068 277.748 307.681 277.005 306.689 275.521C305.704 274.037 305.212 271.982 305.212 269.357C305.212 266.701 305.712 264.638 306.712 263.169C307.72 261.693 309.083 260.955 310.802 260.955ZM310.802 274.677C311.458 274.677 311.935 274.283 312.232 273.494C312.528 272.697 312.677 271.205 312.677 269.017C312.677 267.197 312.528 265.912 312.232 265.162C311.943 264.404 311.458 264.025 310.778 264.025C310.114 264.025 309.626 264.396 309.314 265.138C309.009 265.873 308.857 267.333 308.857 269.521C308.857 271.357 309.009 272.677 309.314 273.482C309.626 274.279 310.122 274.677 310.802 274.677ZM325.778 261.166V277.537H322.157V261.166H325.778ZM334.263 268.9C332.919 268.056 332.247 266.888 332.247 265.396C332.247 264.068 332.704 262.998 333.618 262.185C334.532 261.365 335.732 260.955 337.216 260.955C338.778 260.955 340.017 261.392 340.931 262.267C341.845 263.134 342.302 264.185 342.302 265.419C342.302 266.943 341.638 268.103 340.31 268.9C341.943 269.744 342.759 271.064 342.759 272.861C342.759 274.33 342.255 275.513 341.247 276.412C340.247 277.302 338.911 277.748 337.239 277.748C335.63 277.748 334.318 277.294 333.302 276.388C332.294 275.482 331.79 274.314 331.79 272.884C331.79 270.986 332.614 269.658 334.263 268.9ZM337.31 267.892C337.778 267.892 338.142 267.685 338.4 267.271C338.665 266.849 338.798 266.271 338.798 265.537C338.798 264.083 338.286 263.357 337.263 263.357C336.802 263.357 336.435 263.556 336.161 263.955C335.888 264.345 335.751 264.888 335.751 265.583C335.751 266.294 335.892 266.857 336.173 267.271C336.454 267.685 336.833 267.892 337.31 267.892ZM337.31 275.357C337.849 275.357 338.282 275.13 338.61 274.677C338.946 274.216 339.114 273.603 339.114 272.837C339.114 272.033 338.946 271.396 338.61 270.927C338.282 270.451 337.841 270.212 337.286 270.212C336.732 270.212 336.286 270.443 335.95 270.904C335.614 271.357 335.446 271.966 335.446 272.732C335.446 273.529 335.618 274.166 335.962 274.642C336.306 275.119 336.755 275.357 337.31 275.357ZM267.595 338.597H267.712C268.565 338.597 269.213 338.421 269.655 338.07C270.105 337.718 270.329 337.207 270.329 336.537C270.329 335.931 270.111 335.44 269.675 335.062C269.245 334.684 268.679 334.496 267.976 334.496C267.266 334.496 266.478 334.717 265.612 335.16V333.294C266.407 332.897 267.273 332.699 268.21 332.699C269.467 332.699 270.456 333.028 271.179 333.685C271.908 334.343 272.273 335.241 272.273 336.38C272.273 337.07 272.133 337.653 271.853 338.128C271.573 338.597 271.127 339.001 270.515 339.339C271.049 339.548 271.439 339.805 271.687 340.111C271.934 340.41 272.126 340.775 272.263 341.205C272.4 341.634 272.468 342.09 272.468 342.572C272.468 343.763 272.071 344.75 271.276 345.531C270.482 346.306 269.48 346.693 268.269 346.693C267.234 346.693 266.234 346.442 265.271 345.941V343.812C266.299 344.457 267.299 344.779 268.269 344.779C268.926 344.779 269.454 344.583 269.851 344.193C270.254 343.802 270.456 343.285 270.456 342.64C270.456 342.1 270.29 341.628 269.958 341.224C269.763 340.996 269.545 340.83 269.304 340.726C269.069 340.615 268.558 340.511 267.771 340.414L267.595 340.394V338.597ZM281.062 332.894H288.796V334.632H283.015V338.792H288.601V340.541H283.015V344.779H288.982V346.517H281.062V332.894ZM298.181 340.013V346.537H296.394V341.537C296.394 340.541 296.26 339.847 295.993 339.457C295.726 339.059 295.261 338.861 294.597 338.861C294.226 338.861 293.884 338.945 293.571 339.115C293.265 339.284 292.914 339.583 292.517 340.013V346.537H290.739V337.552H292.517V338.734C293.422 337.829 294.307 337.376 295.173 337.376C296.312 337.376 297.194 337.917 297.819 338.998C298.77 337.904 299.763 337.357 300.798 337.357C301.67 337.357 302.387 337.676 302.946 338.314C303.513 338.952 303.796 339.925 303.796 341.234V346.537H302.019V341.214C302.019 340.466 301.866 339.893 301.56 339.496C301.254 339.098 300.814 338.9 300.241 338.9C299.506 338.9 298.819 339.271 298.181 340.013ZM306.13 351.117V337.552H309.245C310.84 337.552 312.081 337.949 312.966 338.744C313.858 339.538 314.304 340.648 314.304 342.074C314.304 343.421 313.884 344.528 313.044 345.394C312.211 346.26 311.146 346.693 309.851 346.693C309.278 346.693 308.643 346.566 307.946 346.312V351.117H306.13ZM309.206 339.212H307.946V344.74C308.493 345.02 309.066 345.16 309.665 345.16C310.499 345.16 311.179 344.87 311.706 344.291C312.24 343.711 312.507 342.966 312.507 342.054C312.507 341.468 312.38 340.951 312.126 340.501C311.879 340.052 311.537 339.727 311.101 339.525C310.671 339.317 310.04 339.212 309.206 339.212ZM316.286 332.894H318.064V346.537H316.286V332.894ZM324.939 337.533C326.306 337.533 327.442 337.975 328.347 338.861C329.252 339.74 329.704 340.847 329.704 342.181C329.704 343.477 329.245 344.554 328.327 345.414C327.409 346.266 326.254 346.693 324.86 346.693C323.513 346.693 322.387 346.26 321.482 345.394C320.577 344.522 320.124 343.434 320.124 342.132C320.124 340.817 320.58 339.723 321.491 338.851C322.409 337.972 323.558 337.533 324.939 337.533ZM324.841 339.134C323.988 339.134 323.288 339.414 322.741 339.974C322.194 340.534 321.921 341.247 321.921 342.113C321.921 342.972 322.201 343.675 322.761 344.222C323.321 344.763 324.04 345.033 324.919 345.033C325.791 345.033 326.504 344.759 327.058 344.212C327.618 343.659 327.898 342.953 327.898 342.093C327.898 341.24 327.608 340.534 327.028 339.974C326.449 339.414 325.72 339.134 324.841 339.134ZM336.765 337.552H338.767L332.409 351.117H330.427L333.484 344.613L330.007 337.552H332.028L334.45 342.621L336.765 337.552ZM347.282 342.201H340.964C341.01 343.06 341.296 343.744 341.823 344.251C342.357 344.759 343.044 345.013 343.884 345.013C345.056 345.013 346.137 344.649 347.126 343.919V345.658C346.579 346.022 346.036 346.283 345.495 346.439C344.961 346.595 344.333 346.673 343.61 346.673C342.621 346.673 341.82 346.468 341.208 346.058C340.596 345.648 340.105 345.098 339.734 344.408C339.369 343.711 339.187 342.907 339.187 341.996C339.187 340.628 339.574 339.518 340.349 338.666C341.124 337.806 342.129 337.376 343.366 337.376C344.558 337.376 345.508 337.793 346.218 338.626C346.928 339.46 347.282 340.576 347.282 341.976V342.201ZM341.003 341.136H345.525C345.479 340.427 345.267 339.88 344.89 339.496C344.512 339.111 344.004 338.919 343.366 338.919C342.728 338.919 342.204 339.111 341.794 339.496C341.39 339.88 341.127 340.427 341.003 341.136ZM356.872 342.201H350.554C350.599 343.06 350.886 343.744 351.413 344.251C351.947 344.759 352.634 345.013 353.474 345.013C354.646 345.013 355.726 344.649 356.716 343.919V345.658C356.169 346.022 355.625 346.283 355.085 346.439C354.551 346.595 353.923 346.673 353.2 346.673C352.211 346.673 351.41 346.468 350.798 346.058C350.186 345.648 349.694 345.098 349.323 344.408C348.959 343.711 348.776 342.907 348.776 341.996C348.776 340.628 349.164 339.518 349.939 338.666C350.713 337.806 351.719 337.376 352.956 337.376C354.148 337.376 355.098 337.793 355.808 338.626C356.517 339.46 356.872 340.576 356.872 341.976V342.201ZM350.593 341.136H355.114C355.069 340.427 354.857 339.88 354.48 339.496C354.102 339.111 353.594 338.919 352.956 338.919C352.318 338.919 351.794 339.111 351.384 339.496C350.98 339.88 350.717 340.427 350.593 341.136ZM358.366 345.892V343.978C358.868 344.33 359.379 344.616 359.9 344.837C360.427 345.052 360.87 345.16 361.228 345.16C361.599 345.16 361.918 345.069 362.185 344.886C362.452 344.704 362.585 344.486 362.585 344.232C362.585 343.972 362.497 343.757 362.321 343.587C362.152 343.412 361.781 343.161 361.208 342.835C360.062 342.197 359.31 341.654 358.952 341.205C358.601 340.749 358.425 340.254 358.425 339.72C358.425 339.03 358.692 338.467 359.226 338.031C359.766 337.595 360.459 337.376 361.306 337.376C362.185 337.376 363.086 337.624 364.011 338.119V339.876C362.956 339.238 362.094 338.919 361.423 338.919C361.078 338.919 360.798 338.994 360.583 339.144C360.375 339.287 360.271 339.479 360.271 339.72C360.271 339.929 360.365 340.127 360.554 340.316C360.749 340.505 361.088 340.733 361.569 341L362.204 341.361C363.702 342.207 364.45 343.145 364.45 344.173C364.45 344.909 364.161 345.514 363.581 345.99C363.008 346.458 362.269 346.693 361.364 346.693C360.831 346.693 360.355 346.638 359.939 346.527C359.522 346.41 358.998 346.198 358.366 345.892ZM284.626 378.894H286.579V392.537H284.626V378.894ZM297.546 392.537V378.875H301.872C303.174 378.875 304.213 379.226 304.987 379.929C305.762 380.632 306.15 381.576 306.15 382.761C306.15 383.556 305.951 384.259 305.554 384.871C305.157 385.483 304.613 385.929 303.923 386.208C303.233 386.482 302.243 386.619 300.954 386.619H299.509V392.537H297.546ZM301.53 380.613H299.509V384.88H301.648C302.442 384.88 303.054 384.695 303.484 384.324C303.913 383.946 304.128 383.409 304.128 382.712C304.128 381.313 303.262 380.613 301.53 380.613ZM309.509 383.552V385.613L309.607 385.457C310.466 384.07 311.325 383.376 312.185 383.376C312.855 383.376 313.555 383.715 314.284 384.392L313.347 385.955C312.728 385.369 312.155 385.076 311.628 385.076C311.055 385.076 310.557 385.349 310.134 385.896C309.717 386.443 309.509 387.091 309.509 387.839V392.537H307.722V383.552H309.509ZM319.323 383.533C320.691 383.533 321.827 383.975 322.732 384.861C323.637 385.74 324.089 386.847 324.089 388.181C324.089 389.477 323.63 390.554 322.712 391.414C321.794 392.266 320.638 392.693 319.245 392.693C317.898 392.693 316.771 392.26 315.866 391.394C314.961 390.522 314.509 389.434 314.509 388.132C314.509 386.817 314.965 385.723 315.876 384.851C316.794 383.972 317.943 383.533 319.323 383.533ZM319.226 385.134C318.373 385.134 317.673 385.414 317.126 385.974C316.579 386.534 316.306 387.247 316.306 388.113C316.306 388.972 316.586 389.675 317.146 390.222C317.706 390.763 318.425 391.033 319.304 391.033C320.176 391.033 320.889 390.759 321.443 390.212C322.002 389.659 322.282 388.953 322.282 388.093C322.282 387.24 321.993 386.534 321.413 385.974C320.834 385.414 320.105 385.134 319.226 385.134ZM326.882 379.773C327.175 379.773 327.426 379.877 327.634 380.085C327.842 380.287 327.946 380.531 327.946 380.818C327.946 381.117 327.846 381.368 327.644 381.57C327.448 381.772 327.201 381.873 326.901 381.873C326.622 381.873 326.374 381.768 326.159 381.56C325.944 381.352 325.837 381.104 325.837 380.818C325.837 380.544 325.941 380.304 326.15 380.095C326.364 379.88 326.609 379.773 326.882 379.773ZM326.042 383.552H327.819V393.816C327.819 395.372 327.221 396.472 326.023 397.117L324.704 395.818C325.114 395.675 325.44 395.424 325.681 395.066C325.922 394.708 326.042 394.291 326.042 393.816V383.552ZM338.112 388.201H331.794C331.84 389.06 332.126 389.744 332.653 390.251C333.187 390.759 333.874 391.013 334.714 391.013C335.886 391.013 336.967 390.649 337.956 389.919V391.658C337.409 392.022 336.866 392.283 336.325 392.439C335.791 392.595 335.163 392.673 334.441 392.673C333.451 392.673 332.65 392.468 332.038 392.058C331.426 391.648 330.935 391.098 330.564 390.408C330.199 389.711 330.017 388.907 330.017 387.996C330.017 386.628 330.404 385.518 331.179 384.666C331.954 383.806 332.959 383.376 334.196 383.376C335.388 383.376 336.338 383.793 337.048 384.626C337.758 385.46 338.112 386.576 338.112 387.976V388.201ZM331.833 387.136H336.355C336.309 386.427 336.097 385.88 335.72 385.496C335.342 385.111 334.834 384.919 334.196 384.919C333.558 384.919 333.034 385.111 332.624 385.496C332.221 385.88 331.957 386.427 331.833 387.136ZM346.784 390.437V392.195C345.892 392.527 345.02 392.693 344.167 392.693C342.761 392.693 341.638 392.276 340.798 391.443C339.965 390.61 339.548 389.493 339.548 388.093C339.548 386.681 339.955 385.541 340.769 384.675C341.582 383.809 342.653 383.376 343.982 383.376C344.444 383.376 344.857 383.422 345.222 383.513C345.593 383.598 346.049 383.761 346.589 384.001V385.896C345.691 385.323 344.857 385.037 344.089 385.037C343.288 385.037 342.631 385.32 342.116 385.886C341.602 386.446 341.345 387.162 341.345 388.035C341.345 388.953 341.622 389.682 342.175 390.222C342.735 390.763 343.487 391.033 344.431 391.033C345.114 391.033 345.899 390.834 346.784 390.437ZM347.556 384.978L350.896 381.697V383.552H353.737V385.154H350.896V389.558C350.896 390.587 351.322 391.101 352.175 391.101C352.813 391.101 353.487 390.886 354.196 390.457V392.117C353.513 392.501 352.767 392.693 351.96 392.693C351.146 392.693 350.469 392.455 349.929 391.98C349.76 391.837 349.62 391.677 349.509 391.501C349.398 391.319 349.304 391.085 349.226 390.798C349.154 390.505 349.118 389.952 349.118 389.138V385.154H347.556V384.978Z" fill="#1B5694"/>
<g filter="url(#filter1_d_211_198)">
<rect x="355.918" y="166.775" width="208.504" height="208.504" transform="rotate(-45 355.918 166.775)" fill="url(#paint1_linear_211_198)"/>
</g>
<path d="M488.985 104.518V107.857H478.169V107.4C479.161 106.189 480.294 104.658 481.568 102.807C482.849 100.947 483.657 99.627 483.993 98.8457C484.329 98.0645 484.497 97.3066 484.497 96.5723C484.497 95.9316 484.282 95.3809 483.853 94.9199C483.431 94.459 482.919 94.2285 482.318 94.2285C481.122 94.2285 479.81 94.9082 478.38 96.2676V92.834C479.982 91.7949 481.509 91.2754 482.962 91.2754C484.571 91.2754 485.837 91.6895 486.759 92.5176C487.689 93.3457 488.153 94.4824 488.153 95.9277C488.153 97.9043 486.673 100.768 483.712 104.518H488.985ZM496.755 91.2754C498.489 91.2754 499.841 92.0215 500.81 93.5137C501.786 95.0059 502.275 97.0332 502.275 99.5957C502.275 102.26 501.802 104.338 500.857 105.83C499.911 107.322 498.56 108.068 496.802 108.068C495.021 108.068 493.634 107.326 492.642 105.842C491.657 104.357 491.165 102.303 491.165 99.6777C491.165 97.0215 491.665 94.959 492.665 93.4902C493.673 92.0137 495.036 91.2754 496.755 91.2754ZM496.755 104.998C497.411 104.998 497.888 104.604 498.185 103.814C498.482 103.018 498.63 101.525 498.63 99.3379C498.63 97.5176 498.482 96.2324 498.185 95.4824C497.896 94.7246 497.411 94.3457 496.732 94.3457C496.068 94.3457 495.579 94.7168 495.267 95.459C494.962 96.1934 494.81 97.6543 494.81 99.8418C494.81 101.678 494.962 102.998 495.267 103.803C495.579 104.6 496.075 104.998 496.755 104.998ZM511.732 91.4863V107.857H508.11V91.4863H511.732ZM519.595 108.068L523.368 101.928C522.993 102.029 522.622 102.08 522.255 102.08C521.036 102.08 519.985 101.58 519.103 100.58C518.228 99.5723 517.79 98.3574 517.79 96.9355C517.79 95.334 518.314 93.9902 519.36 92.9043C520.407 91.8184 521.7 91.2754 523.239 91.2754C524.786 91.2754 526.071 91.8184 527.095 92.9043C528.126 93.9902 528.642 95.3496 528.642 96.9824C528.642 98.9199 527.923 101.057 526.485 103.393L523.603 108.068H519.595ZM523.169 99.291C523.693 99.291 524.126 99.0605 524.47 98.5996C524.821 98.1387 524.997 97.5527 524.997 96.8418C524.997 96.0684 524.833 95.459 524.505 95.0137C524.177 94.5684 523.732 94.3457 523.169 94.3457C522.63 94.3457 522.181 94.5801 521.821 95.0488C521.47 95.5098 521.294 96.0996 521.294 96.8184C521.294 97.5527 521.466 98.1504 521.81 98.6113C522.161 99.0645 522.614 99.291 523.169 99.291ZM451.966 163.215H458.021V164.953H453.743V168.4C453.88 168.387 454.02 168.381 454.163 168.381C455.485 168.381 456.572 168.785 457.425 169.592C458.278 170.393 458.704 171.415 458.704 172.658C458.704 173.941 458.281 174.986 457.435 175.793C456.595 176.594 455.504 176.994 454.163 176.994C453.056 176.994 451.982 176.727 450.941 176.193V174.182C451.924 174.82 452.884 175.139 453.821 175.139C454.642 175.139 455.329 174.901 455.882 174.426C456.442 173.944 456.722 173.355 456.722 172.658C456.722 171.936 456.419 171.333 455.814 170.852C455.208 170.363 454.453 170.119 453.548 170.119C452.773 170.119 452.246 170.184 451.966 170.314V163.215ZM467.015 163.215H474.749V164.953H468.968V169.113H474.554V170.861H468.968V175.1H474.935V176.838H467.015V163.215ZM484.134 170.334V176.857H482.347V171.857C482.347 170.861 482.213 170.168 481.946 169.777C481.679 169.38 481.214 169.182 480.55 169.182C480.179 169.182 479.837 169.266 479.525 169.436C479.219 169.605 478.867 169.904 478.47 170.334V176.857H476.693V167.873H478.47V169.055C479.375 168.15 480.26 167.697 481.126 167.697C482.265 167.697 483.148 168.238 483.773 169.318C484.723 168.225 485.716 167.678 486.751 167.678C487.624 167.678 488.34 167.997 488.9 168.635C489.466 169.273 489.749 170.246 489.749 171.555V176.857H487.972V171.535C487.972 170.786 487.819 170.214 487.513 169.816C487.207 169.419 486.767 169.221 486.194 169.221C485.459 169.221 484.772 169.592 484.134 170.334ZM492.083 181.438V167.873H495.198C496.793 167.873 498.034 168.27 498.919 169.064C499.811 169.859 500.257 170.969 500.257 172.395C500.257 173.742 499.837 174.849 498.997 175.715C498.164 176.581 497.099 177.014 495.804 177.014C495.231 177.014 494.596 176.887 493.9 176.633V181.438H492.083ZM495.159 169.533H493.9V175.061C494.446 175.34 495.019 175.48 495.618 175.48C496.452 175.48 497.132 175.191 497.659 174.611C498.193 174.032 498.46 173.286 498.46 172.375C498.46 171.789 498.333 171.271 498.079 170.822C497.832 170.373 497.49 170.048 497.054 169.846C496.624 169.637 495.993 169.533 495.159 169.533ZM502.239 163.215H504.017V176.857H502.239V163.215ZM510.892 167.854C512.259 167.854 513.395 168.296 514.3 169.182C515.205 170.061 515.657 171.167 515.657 172.502C515.657 173.798 515.198 174.875 514.28 175.734C513.362 176.587 512.207 177.014 510.814 177.014C509.466 177.014 508.34 176.581 507.435 175.715C506.53 174.842 506.077 173.755 506.077 172.453C506.077 171.138 506.533 170.044 507.444 169.172C508.362 168.293 509.512 167.854 510.892 167.854ZM510.794 169.455C509.941 169.455 509.241 169.735 508.694 170.295C508.148 170.855 507.874 171.568 507.874 172.434C507.874 173.293 508.154 173.996 508.714 174.543C509.274 175.083 509.993 175.354 510.872 175.354C511.745 175.354 512.457 175.08 513.011 174.533C513.571 173.98 513.851 173.273 513.851 172.414C513.851 171.561 513.561 170.855 512.982 170.295C512.402 169.735 511.673 169.455 510.794 169.455ZM522.718 167.873H524.72L518.362 181.438H516.38L519.437 174.934L515.96 167.873H517.982L520.403 172.941L522.718 167.873ZM533.235 172.521H526.917C526.963 173.381 527.249 174.064 527.776 174.572C528.31 175.08 528.997 175.334 529.837 175.334C531.009 175.334 532.09 174.969 533.079 174.24V175.979C532.532 176.343 531.989 176.604 531.448 176.76C530.915 176.916 530.286 176.994 529.564 176.994C528.574 176.994 527.773 176.789 527.161 176.379C526.549 175.969 526.058 175.419 525.687 174.729C525.322 174.032 525.14 173.228 525.14 172.316C525.14 170.949 525.527 169.839 526.302 168.986C527.077 168.127 528.082 167.697 529.319 167.697C530.511 167.697 531.461 168.114 532.171 168.947C532.881 169.781 533.235 170.897 533.235 172.297V172.521ZM526.956 171.457H531.478C531.432 170.747 531.221 170.201 530.843 169.816C530.465 169.432 529.957 169.24 529.319 169.24C528.681 169.24 528.157 169.432 527.747 169.816C527.344 170.201 527.08 170.747 526.956 171.457ZM542.825 172.521H536.507C536.553 173.381 536.839 174.064 537.366 174.572C537.9 175.08 538.587 175.334 539.427 175.334C540.599 175.334 541.679 174.969 542.669 174.24V175.979C542.122 176.343 541.579 176.604 541.038 176.76C540.504 176.916 539.876 176.994 539.153 176.994C538.164 176.994 537.363 176.789 536.751 176.379C536.139 175.969 535.648 175.419 535.276 174.729C534.912 174.032 534.73 173.228 534.73 172.316C534.73 170.949 535.117 169.839 535.892 168.986C536.666 168.127 537.672 167.697 538.909 167.697C540.101 167.697 541.051 168.114 541.761 168.947C542.471 169.781 542.825 170.897 542.825 172.297V172.521ZM536.546 171.457H541.068C541.022 170.747 540.81 170.201 540.433 169.816C540.055 169.432 539.547 169.24 538.909 169.24C538.271 169.24 537.747 169.432 537.337 169.816C536.933 170.201 536.67 170.747 536.546 171.457ZM544.319 176.213V174.299C544.821 174.65 545.332 174.937 545.853 175.158C546.38 175.373 546.823 175.48 547.181 175.48C547.552 175.48 547.871 175.389 548.138 175.207C548.405 175.025 548.538 174.807 548.538 174.553C548.538 174.292 548.45 174.077 548.275 173.908C548.105 173.732 547.734 173.482 547.161 173.156C546.015 172.518 545.263 171.975 544.905 171.525C544.554 171.07 544.378 170.575 544.378 170.041C544.378 169.351 544.645 168.788 545.179 168.352C545.719 167.915 546.413 167.697 547.259 167.697C548.138 167.697 549.04 167.945 549.964 168.439V170.197C548.909 169.559 548.047 169.24 547.376 169.24C547.031 169.24 546.751 169.315 546.536 169.465C546.328 169.608 546.224 169.8 546.224 170.041C546.224 170.249 546.318 170.448 546.507 170.637C546.702 170.826 547.041 171.053 547.523 171.32L548.157 171.682C549.655 172.528 550.403 173.465 550.403 174.494C550.403 175.23 550.114 175.835 549.534 176.311C548.961 176.779 548.222 177.014 547.318 177.014C546.784 177.014 546.308 176.958 545.892 176.848C545.475 176.73 544.951 176.519 544.319 176.213ZM466.292 214.918H466.409C467.262 214.918 467.91 214.742 468.353 214.391C468.802 214.039 469.026 213.528 469.026 212.857C469.026 212.252 468.808 211.76 468.372 211.383C467.943 211.005 467.376 210.816 466.673 210.816C465.963 210.816 465.176 211.038 464.31 211.48V209.615C465.104 209.218 465.97 209.02 466.907 209.02C468.164 209.02 469.153 209.348 469.876 210.006C470.605 210.663 470.97 211.562 470.97 212.701C470.97 213.391 470.83 213.974 470.55 214.449C470.27 214.918 469.824 215.322 469.212 215.66C469.746 215.868 470.137 216.126 470.384 216.432C470.631 216.731 470.823 217.096 470.96 217.525C471.097 217.955 471.165 218.411 471.165 218.893C471.165 220.084 470.768 221.07 469.974 221.852C469.179 222.626 468.177 223.014 466.966 223.014C465.931 223.014 464.931 222.763 463.968 222.262V220.133C464.997 220.777 465.996 221.1 466.966 221.1C467.624 221.1 468.151 220.904 468.548 220.514C468.952 220.123 469.153 219.605 469.153 218.961C469.153 218.421 468.987 217.949 468.655 217.545C468.46 217.317 468.242 217.151 468.001 217.047C467.767 216.936 467.256 216.832 466.468 216.734L466.292 216.715V214.918ZM479.651 222.857V209.195H483.978C485.28 209.195 486.318 209.547 487.093 210.25C487.868 210.953 488.255 211.897 488.255 213.082C488.255 213.876 488.056 214.579 487.659 215.191C487.262 215.803 486.719 216.249 486.028 216.529C485.338 216.803 484.349 216.939 483.06 216.939H481.614V222.857H479.651ZM483.636 210.934H481.614V215.201H483.753C484.547 215.201 485.159 215.016 485.589 214.645C486.019 214.267 486.234 213.73 486.234 213.033C486.234 211.633 485.368 210.934 483.636 210.934ZM491.614 213.873V215.934L491.712 215.777C492.571 214.391 493.431 213.697 494.29 213.697C494.961 213.697 495.661 214.036 496.39 214.713L495.452 216.275C494.834 215.689 494.261 215.396 493.734 215.396C493.161 215.396 492.663 215.67 492.239 216.217C491.823 216.764 491.614 217.411 491.614 218.16V222.857H489.827V213.873H491.614ZM501.429 213.854C502.796 213.854 503.932 214.296 504.837 215.182C505.742 216.061 506.194 217.167 506.194 218.502C506.194 219.798 505.735 220.875 504.818 221.734C503.9 222.587 502.744 223.014 501.351 223.014C500.003 223.014 498.877 222.581 497.972 221.715C497.067 220.842 496.614 219.755 496.614 218.453C496.614 217.138 497.07 216.044 497.982 215.172C498.9 214.293 500.049 213.854 501.429 213.854ZM501.331 215.455C500.478 215.455 499.778 215.735 499.232 216.295C498.685 216.855 498.411 217.568 498.411 218.434C498.411 219.293 498.691 219.996 499.251 220.543C499.811 221.083 500.53 221.354 501.409 221.354C502.282 221.354 502.995 221.08 503.548 220.533C504.108 219.98 504.388 219.273 504.388 218.414C504.388 217.561 504.098 216.855 503.519 216.295C502.939 215.735 502.21 215.455 501.331 215.455ZM508.987 210.094C509.28 210.094 509.531 210.198 509.739 210.406C509.948 210.608 510.052 210.852 510.052 211.139C510.052 211.438 509.951 211.689 509.749 211.891C509.554 212.092 509.306 212.193 509.007 212.193C508.727 212.193 508.48 212.089 508.265 211.881C508.05 211.673 507.943 211.425 507.943 211.139C507.943 210.865 508.047 210.624 508.255 210.416C508.47 210.201 508.714 210.094 508.987 210.094ZM508.148 213.873H509.925V224.137C509.925 225.693 509.326 226.793 508.128 227.438L506.81 226.139C507.22 225.995 507.545 225.745 507.786 225.387C508.027 225.029 508.148 224.612 508.148 224.137V213.873ZM520.218 218.521H513.9C513.945 219.381 514.232 220.064 514.759 220.572C515.293 221.08 515.98 221.334 516.819 221.334C517.991 221.334 519.072 220.969 520.062 220.24V221.979C519.515 222.343 518.971 222.604 518.431 222.76C517.897 222.916 517.269 222.994 516.546 222.994C515.556 222.994 514.756 222.789 514.144 222.379C513.532 221.969 513.04 221.419 512.669 220.729C512.304 220.032 512.122 219.228 512.122 218.316C512.122 216.949 512.51 215.839 513.284 214.986C514.059 214.127 515.065 213.697 516.302 213.697C517.493 213.697 518.444 214.114 519.153 214.947C519.863 215.781 520.218 216.897 520.218 218.297V218.521ZM513.939 217.457H518.46C518.415 216.747 518.203 216.201 517.825 215.816C517.448 215.432 516.94 215.24 516.302 215.24C515.664 215.24 515.14 215.432 514.73 215.816C514.326 216.201 514.062 216.747 513.939 217.457ZM528.89 220.758V222.516C527.998 222.848 527.125 223.014 526.273 223.014C524.866 223.014 523.743 222.597 522.903 221.764C522.07 220.93 521.653 219.814 521.653 218.414C521.653 217.001 522.06 215.862 522.874 214.996C523.688 214.13 524.759 213.697 526.087 213.697C526.549 213.697 526.963 213.743 527.327 213.834C527.698 213.919 528.154 214.081 528.694 214.322V216.217C527.796 215.644 526.963 215.357 526.194 215.357C525.394 215.357 524.736 215.641 524.222 216.207C523.707 216.767 523.45 217.483 523.45 218.355C523.45 219.273 523.727 220.003 524.28 220.543C524.84 221.083 525.592 221.354 526.536 221.354C527.22 221.354 528.004 221.155 528.89 220.758ZM529.661 215.299L533.001 212.018V213.873H535.843V215.475H533.001V219.879C533.001 220.908 533.428 221.422 534.28 221.422C534.918 221.422 535.592 221.207 536.302 220.777V222.438C535.618 222.822 534.873 223.014 534.066 223.014C533.252 223.014 532.575 222.776 532.034 222.301C531.865 222.158 531.725 221.998 531.614 221.822C531.504 221.64 531.409 221.406 531.331 221.119C531.26 220.826 531.224 220.273 531.224 219.459V215.475H529.661V215.299ZM537.142 222.213V220.299C537.643 220.65 538.154 220.937 538.675 221.158C539.202 221.373 539.645 221.48 540.003 221.48C540.374 221.48 540.693 221.389 540.96 221.207C541.227 221.025 541.36 220.807 541.36 220.553C541.36 220.292 541.273 220.077 541.097 219.908C540.928 219.732 540.556 219.482 539.984 219.156C538.838 218.518 538.086 217.975 537.728 217.525C537.376 217.07 537.2 216.575 537.2 216.041C537.2 215.351 537.467 214.788 538.001 214.352C538.541 213.915 539.235 213.697 540.081 213.697C540.96 213.697 541.862 213.945 542.786 214.439V216.197C541.732 215.559 540.869 215.24 540.198 215.24C539.853 215.24 539.573 215.315 539.359 215.465C539.15 215.608 539.046 215.8 539.046 216.041C539.046 216.249 539.14 216.448 539.329 216.637C539.525 216.826 539.863 217.053 540.345 217.32L540.98 217.682C542.477 218.528 543.226 219.465 543.226 220.494C543.226 221.23 542.936 221.835 542.357 222.311C541.784 222.779 541.045 223.014 540.14 223.014C539.606 223.014 539.131 222.958 538.714 222.848C538.297 222.73 537.773 222.519 537.142 222.213Z" fill="#1B5694"/>
<g filter="url(#filter2_d_211_198)">
<rect x="541.871" y="336.455" width="208.504" height="208.504" transform="rotate(-45 541.871 336.455)" fill="url(#paint2_linear_211_198)"/>
</g>
<path d="M674.939 274.197V277.537H664.122V277.08C665.114 275.869 666.247 274.337 667.521 272.486C668.802 270.626 669.61 269.306 669.946 268.525C670.282 267.744 670.45 266.986 670.45 266.251C670.45 265.611 670.235 265.06 669.806 264.599C669.384 264.138 668.872 263.908 668.271 263.908C667.075 263.908 665.763 264.587 664.333 265.947V262.513C665.935 261.474 667.462 260.955 668.915 260.955C670.525 260.955 671.79 261.369 672.712 262.197C673.642 263.025 674.107 264.162 674.107 265.607C674.107 267.583 672.626 270.447 669.665 274.197H674.939ZM682.708 260.955C684.443 260.955 685.794 261.701 686.763 263.193C687.739 264.685 688.228 266.712 688.228 269.275C688.228 271.939 687.755 274.017 686.81 275.509C685.864 277.001 684.513 277.748 682.755 277.748C680.974 277.748 679.587 277.005 678.595 275.521C677.61 274.037 677.118 271.982 677.118 269.357C677.118 266.701 677.618 264.638 678.618 263.169C679.626 261.693 680.989 260.955 682.708 260.955ZM682.708 274.677C683.364 274.677 683.841 274.283 684.138 273.494C684.435 272.697 684.583 271.205 684.583 269.017C684.583 267.197 684.435 265.912 684.138 265.162C683.849 264.404 683.364 264.025 682.685 264.025C682.021 264.025 681.532 264.396 681.22 265.138C680.915 265.873 680.763 267.333 680.763 269.521C680.763 271.357 680.915 272.677 681.22 273.482C681.532 274.279 682.028 274.677 682.708 274.677ZM701.423 274.197V277.537H690.607V277.08C691.599 275.869 692.732 274.337 694.005 272.486C695.286 270.626 696.095 269.306 696.431 268.525C696.767 267.744 696.935 266.986 696.935 266.251C696.935 265.611 696.72 265.06 696.29 264.599C695.868 264.138 695.357 263.908 694.755 263.908C693.56 263.908 692.247 264.587 690.818 265.947V262.513C692.419 261.474 693.946 260.955 695.4 260.955C697.009 260.955 698.275 261.369 699.196 262.197C700.126 263.025 700.591 264.162 700.591 265.607C700.591 267.583 699.11 270.447 696.15 274.197H701.423ZM709.193 260.955C710.927 260.955 712.278 261.701 713.247 263.193C714.224 264.685 714.712 266.712 714.712 269.275C714.712 271.939 714.239 274.017 713.294 275.509C712.349 277.001 710.997 277.748 709.239 277.748C707.458 277.748 706.071 277.005 705.079 275.521C704.095 274.037 703.603 271.982 703.603 269.357C703.603 266.701 704.103 264.638 705.103 263.169C706.11 261.693 707.474 260.955 709.193 260.955ZM709.193 274.677C709.849 274.677 710.325 274.283 710.622 273.494C710.919 272.697 711.068 271.205 711.068 269.017C711.068 267.197 710.919 265.912 710.622 265.162C710.333 264.404 709.849 264.025 709.169 264.025C708.505 264.025 708.017 264.396 707.704 265.138C707.4 265.873 707.247 267.333 707.247 269.521C707.247 271.357 707.4 272.677 707.704 273.482C708.017 274.279 708.513 274.677 709.193 274.677ZM639.638 346.693L638.437 345.277C639.446 344.639 640.328 343.867 641.083 342.962C641.838 342.051 642.343 341.117 642.597 340.16C641.978 340.544 641.252 340.736 640.419 340.736C639.377 340.736 638.482 340.348 637.734 339.574C636.991 338.799 636.62 337.868 636.62 336.781C636.62 335.648 637.017 334.688 637.812 333.9C638.606 333.112 639.576 332.718 640.722 332.718C642.011 332.718 643.066 333.184 643.886 334.115C644.706 335.046 645.116 336.24 645.116 337.699C645.116 339.352 644.602 341.026 643.573 342.718C642.545 344.404 641.233 345.729 639.638 346.693ZM642.978 338.216C643.056 337.695 643.095 337.357 643.095 337.201C643.095 336.413 642.874 335.768 642.431 335.267C641.995 334.766 641.431 334.515 640.741 334.515C640.11 334.515 639.586 334.73 639.169 335.16C638.759 335.583 638.554 336.117 638.554 336.761C638.554 337.354 638.778 337.865 639.228 338.294C639.677 338.724 640.214 338.939 640.839 338.939C641.568 338.939 642.281 338.698 642.978 338.216ZM652.968 332.894H660.702V334.632H654.921V338.792H660.507V340.541H654.921V344.779H660.888V346.517H652.968V332.894ZM670.087 340.013V346.537H668.3V341.537C668.3 340.541 668.166 339.847 667.9 339.457C667.633 339.059 667.167 338.861 666.503 338.861C666.132 338.861 665.79 338.945 665.478 339.115C665.172 339.284 664.82 339.583 664.423 340.013V346.537H662.646V337.552H664.423V338.734C665.328 337.829 666.213 337.376 667.079 337.376C668.219 337.376 669.101 337.917 669.726 338.998C670.676 337.904 671.669 337.357 672.704 337.357C673.577 337.357 674.293 337.676 674.853 338.314C675.419 338.952 675.702 339.925 675.702 341.234V346.537H673.925V341.214C673.925 340.466 673.772 339.893 673.466 339.496C673.16 339.098 672.721 338.9 672.148 338.9C671.412 338.9 670.725 339.271 670.087 340.013ZM678.036 351.117V337.552H681.151C682.747 337.552 683.987 337.949 684.872 338.744C685.764 339.538 686.21 340.648 686.21 342.074C686.21 343.421 685.79 344.528 684.95 345.394C684.117 346.26 683.053 346.693 681.757 346.693C681.184 346.693 680.549 346.566 679.853 346.312V351.117H678.036ZM681.112 339.212H679.853V344.74C680.4 345.02 680.972 345.16 681.571 345.16C682.405 345.16 683.085 344.87 683.612 344.291C684.146 343.711 684.413 342.966 684.413 342.054C684.413 341.468 684.286 340.951 684.032 340.501C683.785 340.052 683.443 339.727 683.007 339.525C682.577 339.317 681.946 339.212 681.112 339.212ZM688.193 332.894H689.97V346.537H688.193V332.894ZM696.845 337.533C698.212 337.533 699.348 337.975 700.253 338.861C701.158 339.74 701.61 340.847 701.61 342.181C701.61 343.477 701.151 344.554 700.234 345.414C699.316 346.266 698.16 346.693 696.767 346.693C695.419 346.693 694.293 346.26 693.388 345.394C692.483 344.522 692.03 343.434 692.03 342.132C692.03 340.817 692.486 339.723 693.398 338.851C694.316 337.972 695.465 337.533 696.845 337.533ZM696.747 339.134C695.894 339.134 695.194 339.414 694.648 339.974C694.101 340.534 693.827 341.247 693.827 342.113C693.827 342.972 694.107 343.675 694.667 344.222C695.227 344.763 695.946 345.033 696.825 345.033C697.698 345.033 698.411 344.759 698.964 344.212C699.524 343.659 699.804 342.953 699.804 342.093C699.804 341.24 699.514 340.534 698.935 339.974C698.355 339.414 697.626 339.134 696.747 339.134ZM708.671 337.552H710.673L704.316 351.117H702.333L705.39 344.613L701.913 337.552H703.935L706.357 342.621L708.671 337.552ZM719.189 342.201H712.87C712.916 343.06 713.202 343.744 713.73 344.251C714.263 344.759 714.95 345.013 715.79 345.013C716.962 345.013 718.043 344.649 719.032 343.919V345.658C718.485 346.022 717.942 346.283 717.401 346.439C716.868 346.595 716.239 346.673 715.517 346.673C714.527 346.673 713.726 346.468 713.114 346.058C712.502 345.648 712.011 345.098 711.64 344.408C711.275 343.711 711.093 342.907 711.093 341.996C711.093 340.628 711.48 339.518 712.255 338.666C713.03 337.806 714.036 337.376 715.273 337.376C716.464 337.376 717.415 337.793 718.124 338.626C718.834 339.46 719.189 340.576 719.189 341.976V342.201ZM712.909 341.136H717.431C717.385 340.427 717.174 339.88 716.796 339.496C716.418 339.111 715.911 338.919 715.273 338.919C714.635 338.919 714.11 339.111 713.7 339.496C713.297 339.88 713.033 340.427 712.909 341.136ZM728.778 342.201H722.46C722.506 343.06 722.792 343.744 723.319 344.251C723.853 344.759 724.54 345.013 725.38 345.013C726.552 345.013 727.633 344.649 728.622 343.919V345.658C728.075 346.022 727.532 346.283 726.991 346.439C726.457 346.595 725.829 346.673 725.107 346.673C724.117 346.673 723.316 346.468 722.704 346.058C722.092 345.648 721.601 345.098 721.23 344.408C720.865 343.711 720.683 342.907 720.683 341.996C720.683 340.628 721.07 339.518 721.845 338.666C722.62 337.806 723.625 337.376 724.862 337.376C726.054 337.376 727.004 337.793 727.714 338.626C728.424 339.46 728.778 340.576 728.778 341.976V342.201ZM722.499 341.136H727.021C726.975 340.427 726.763 339.88 726.386 339.496C726.008 339.111 725.5 338.919 724.862 338.919C724.224 338.919 723.7 339.111 723.29 339.496C722.887 339.88 722.623 340.427 722.499 341.136ZM730.273 345.892V343.978C730.774 344.33 731.285 344.616 731.806 344.837C732.333 345.052 732.776 345.16 733.134 345.16C733.505 345.16 733.824 345.069 734.091 344.886C734.358 344.704 734.491 344.486 734.491 344.232C734.491 343.972 734.403 343.757 734.228 343.587C734.058 343.412 733.687 343.161 733.114 342.835C731.969 342.197 731.217 341.654 730.859 341.205C730.507 340.749 730.331 340.254 730.331 339.72C730.331 339.03 730.598 338.467 731.132 338.031C731.672 337.595 732.366 337.376 733.212 337.376C734.091 337.376 734.993 337.624 735.917 338.119V339.876C734.862 339.238 734 338.919 733.329 338.919C732.984 338.919 732.704 338.994 732.489 339.144C732.281 339.287 732.177 339.479 732.177 339.72C732.177 339.929 732.271 340.127 732.46 340.316C732.655 340.505 732.994 340.733 733.476 341L734.11 341.361C735.608 342.207 736.357 343.145 736.357 344.173C736.357 344.909 736.067 345.514 735.487 345.99C734.915 346.458 734.176 346.693 733.271 346.693C732.737 346.693 732.262 346.638 731.845 346.527C731.428 346.41 730.904 346.198 730.273 345.892ZM655.741 378.718H656.542V386.375H658.066V388.035H656.542V392.537H654.638V388.035H648.866V387.195L655.741 378.718ZM654.638 386.375V382.419L651.484 386.375H654.638ZM665.605 392.537V378.875H669.931C671.233 378.875 672.271 379.226 673.046 379.929C673.821 380.632 674.208 381.576 674.208 382.761C674.208 383.556 674.01 384.259 673.612 384.871C673.215 385.483 672.672 385.929 671.982 386.208C671.291 386.482 670.302 386.619 669.013 386.619H667.568V392.537H665.605ZM669.589 380.613H667.568V384.88H669.706C670.5 384.88 671.112 384.695 671.542 384.324C671.972 383.946 672.187 383.409 672.187 382.712C672.187 381.313 671.321 380.613 669.589 380.613ZM677.568 383.552V385.613L677.665 385.457C678.525 384.07 679.384 383.376 680.243 383.376C680.914 383.376 681.614 383.715 682.343 384.392L681.405 385.955C680.787 385.369 680.214 385.076 679.687 385.076C679.114 385.076 678.616 385.349 678.193 385.896C677.776 386.443 677.568 387.091 677.568 387.839V392.537H675.78V383.552H677.568ZM687.382 383.533C688.749 383.533 689.885 383.975 690.79 384.861C691.695 385.74 692.148 386.847 692.148 388.181C692.148 389.477 691.689 390.554 690.771 391.414C689.853 392.266 688.697 392.693 687.304 392.693C685.956 392.693 684.83 392.26 683.925 391.394C683.02 390.522 682.568 389.434 682.568 388.132C682.568 386.817 683.023 385.723 683.935 384.851C684.853 383.972 686.002 383.533 687.382 383.533ZM687.284 385.134C686.431 385.134 685.732 385.414 685.185 385.974C684.638 386.534 684.364 387.247 684.364 388.113C684.364 388.972 684.644 389.675 685.204 390.222C685.764 390.763 686.484 391.033 687.362 391.033C688.235 391.033 688.948 390.759 689.501 390.212C690.061 389.659 690.341 388.953 690.341 388.093C690.341 387.24 690.051 386.534 689.472 385.974C688.892 385.414 688.163 385.134 687.284 385.134ZM694.941 379.773C695.234 379.773 695.484 379.877 695.693 380.085C695.901 380.287 696.005 380.531 696.005 380.818C696.005 381.117 695.904 381.368 695.702 381.57C695.507 381.772 695.26 381.873 694.96 381.873C694.68 381.873 694.433 381.768 694.218 381.56C694.003 381.352 693.896 381.104 693.896 380.818C693.896 380.544 694 380.304 694.208 380.095C694.423 379.88 694.667 379.773 694.941 379.773ZM694.101 383.552H695.878V393.816C695.878 395.372 695.279 396.472 694.081 397.117L692.763 395.818C693.173 395.675 693.499 395.424 693.739 395.066C693.98 394.708 694.101 394.291 694.101 393.816V383.552ZM706.171 388.201H699.853C699.898 389.06 700.185 389.744 700.712 390.251C701.246 390.759 701.933 391.013 702.773 391.013C703.944 391.013 705.025 390.649 706.015 389.919V391.658C705.468 392.022 704.924 392.283 704.384 392.439C703.85 392.595 703.222 392.673 702.499 392.673C701.51 392.673 700.709 392.468 700.097 392.058C699.485 391.648 698.993 391.098 698.622 390.408C698.258 389.711 698.075 388.907 698.075 387.996C698.075 386.628 698.463 385.518 699.237 384.666C700.012 383.806 701.018 383.376 702.255 383.376C703.446 383.376 704.397 383.793 705.107 384.626C705.816 385.46 706.171 386.576 706.171 387.976V388.201ZM699.892 387.136H704.413C704.368 386.427 704.156 385.88 703.778 385.496C703.401 385.111 702.893 384.919 702.255 384.919C701.617 384.919 701.093 385.111 700.683 385.496C700.279 385.88 700.015 386.427 699.892 387.136ZM714.843 390.437V392.195C713.951 392.527 713.079 392.693 712.226 392.693C710.819 392.693 709.696 392.276 708.857 391.443C708.023 390.61 707.607 389.493 707.607 388.093C707.607 386.681 708.013 385.541 708.827 384.675C709.641 383.809 710.712 383.376 712.04 383.376C712.502 383.376 712.916 383.422 713.28 383.513C713.651 383.598 714.107 383.761 714.648 384.001V385.896C713.749 385.323 712.916 385.037 712.148 385.037C711.347 385.037 710.689 385.32 710.175 385.886C709.661 386.446 709.403 387.162 709.403 388.035C709.403 388.953 709.68 389.682 710.234 390.222C710.793 390.763 711.545 391.033 712.489 391.033C713.173 391.033 713.957 390.834 714.843 390.437ZM715.614 384.978L718.954 381.697V383.552H721.796V385.154H718.954V389.558C718.954 390.587 719.381 391.101 720.234 391.101C720.872 391.101 721.545 390.886 722.255 390.457V392.117C721.571 392.501 720.826 392.693 720.019 392.693C719.205 392.693 718.528 392.455 717.987 391.98C717.818 391.837 717.678 391.677 717.568 391.501C717.457 391.319 717.362 391.085 717.284 390.798C717.213 390.505 717.177 389.952 717.177 389.138V385.154H715.614V384.978ZM723.095 391.892V389.978C723.596 390.33 724.107 390.616 724.628 390.837C725.155 391.052 725.598 391.16 725.956 391.16C726.327 391.16 726.646 391.069 726.913 390.886C727.18 390.704 727.314 390.486 727.314 390.232C727.314 389.972 727.226 389.757 727.05 389.587C726.881 389.412 726.51 389.161 725.937 388.835C724.791 388.197 724.039 387.654 723.681 387.205C723.329 386.749 723.153 386.254 723.153 385.72C723.153 385.03 723.42 384.467 723.954 384.031C724.495 383.595 725.188 383.376 726.034 383.376C726.913 383.376 727.815 383.624 728.739 384.119V385.876C727.685 385.238 726.822 384.919 726.151 384.919C725.806 384.919 725.526 384.994 725.312 385.144C725.103 385.287 724.999 385.479 724.999 385.72C724.999 385.929 725.094 386.127 725.282 386.316C725.478 386.505 725.816 386.733 726.298 387L726.933 387.361C728.43 388.207 729.179 389.145 729.179 390.173C729.179 390.909 728.889 391.514 728.31 391.99C727.737 392.458 726.998 392.693 726.093 392.693C725.559 392.693 725.084 392.638 724.667 392.527C724.25 392.41 723.726 392.198 723.095 391.892Z" fill="#1B5694"/>
<g filter="url(#filter3_d_211_198)">
<rect x="725.992" y="158.94" width="208.504" height="208.504" transform="rotate(-45 725.992 158.94)" fill="url(#paint3_linear_211_198)"/>
</g>
<path d="M859.06 96.6826V100.022H848.243V99.5654C849.235 98.3545 850.368 96.8232 851.642 94.9717C852.923 93.1123 853.732 91.792 854.068 91.0107C854.403 90.2295 854.571 89.4717 854.571 88.7373C854.571 88.0967 854.357 87.5459 853.927 87.085C853.505 86.624 852.993 86.3936 852.392 86.3936C851.196 86.3936 849.884 87.0732 848.454 88.4326V84.999C850.056 83.96 851.583 83.4404 853.036 83.4404C854.646 83.4404 855.911 83.8545 856.833 84.6826C857.763 85.5107 858.228 86.6475 858.228 88.0928C858.228 90.0693 856.747 92.9326 853.786 96.6826H859.06ZM866.829 83.4404C868.564 83.4404 869.915 84.1865 870.884 85.6787C871.86 87.1709 872.349 89.1982 872.349 91.7607C872.349 94.4248 871.876 96.5029 870.931 97.9951C869.985 99.4873 868.634 100.233 866.876 100.233C865.095 100.233 863.708 99.4912 862.716 98.0068C861.732 96.5225 861.239 94.4678 861.239 91.8428C861.239 89.1865 861.739 87.124 862.739 85.6553C863.747 84.1787 865.11 83.4404 866.829 83.4404ZM866.829 97.1631C867.485 97.1631 867.962 96.7686 868.259 95.9795C868.556 95.1826 868.704 93.6904 868.704 91.5029C868.704 89.6826 868.556 88.3975 868.259 87.6475C867.97 86.8896 867.485 86.5107 866.806 86.5107C866.142 86.5107 865.653 86.8818 865.341 87.624C865.036 88.3584 864.884 89.8193 864.884 92.0068C864.884 93.8428 865.036 95.1631 865.341 95.9678C865.653 96.7646 866.15 97.1631 866.829 97.1631ZM885.544 96.6826V100.022H874.728V99.5654C875.72 98.3545 876.853 96.8232 878.126 94.9717C879.407 93.1123 880.216 91.792 880.552 91.0107C880.888 90.2295 881.056 89.4717 881.056 88.7373C881.056 88.0967 880.841 87.5459 880.411 87.085C879.989 86.624 879.478 86.3936 878.876 86.3936C877.681 86.3936 876.368 87.0732 874.939 88.4326V84.999C876.54 83.96 878.068 83.4404 879.521 83.4404C881.13 83.4404 882.396 83.8545 883.318 84.6826C884.247 85.5107 884.712 86.6475 884.712 88.0928C884.712 90.0693 883.232 92.9326 880.271 96.6826H885.544ZM895.048 83.6514V100.022H891.427V83.6514H895.048ZM819.062 155.38H821.015V169.022H819.062V155.38ZM829.14 167.138H834.335V169.022H825.702V168.886L826.523 167.919C827.805 166.33 828.824 164.983 829.579 163.876C830.341 162.769 830.836 161.933 831.064 161.366C831.298 160.8 831.415 160.24 831.415 159.687C831.415 158.918 831.197 158.303 830.761 157.841C830.325 157.372 829.745 157.138 829.023 157.138C828.476 157.138 827.935 157.3 827.401 157.626C826.874 157.945 826.399 158.397 825.976 158.983V156.503C827.037 155.637 828.131 155.204 829.257 155.204C830.448 155.204 831.428 155.601 832.196 156.396C832.971 157.19 833.359 158.199 833.359 159.423C833.359 159.97 833.261 160.556 833.066 161.181C832.877 161.799 832.538 162.515 832.05 163.329C831.562 164.136 830.732 165.24 829.56 166.64L829.14 167.138ZM842.089 155.38H849.823V157.118H844.042V161.278H849.628V163.026H844.042V167.265H850.009V169.003H842.089V155.38ZM859.208 162.499V169.022H857.421V164.022C857.421 163.026 857.288 162.333 857.021 161.942C856.754 161.545 856.288 161.347 855.624 161.347C855.253 161.347 854.911 161.431 854.599 161.601C854.293 161.77 853.941 162.069 853.544 162.499V169.022H851.767V160.038H853.544V161.22C854.449 160.315 855.334 159.862 856.2 159.862C857.34 159.862 858.222 160.403 858.847 161.483C859.797 160.39 860.79 159.843 861.825 159.843C862.698 159.843 863.414 160.162 863.974 160.8C864.54 161.438 864.823 162.411 864.823 163.72V169.022H863.046V163.7C863.046 162.951 862.893 162.379 862.587 161.981C862.281 161.584 861.842 161.386 861.269 161.386C860.533 161.386 859.846 161.757 859.208 162.499ZM867.157 173.603V160.038H870.273C871.868 160.038 873.108 160.435 873.993 161.229C874.885 162.024 875.331 163.134 875.331 164.56C875.331 165.907 874.911 167.014 874.071 167.88C873.238 168.746 872.174 169.179 870.878 169.179C870.305 169.179 869.67 169.052 868.974 168.798V173.603H867.157ZM870.234 161.698H868.974V167.226C869.521 167.506 870.094 167.646 870.693 167.646C871.526 167.646 872.206 167.356 872.734 166.776C873.267 166.197 873.534 165.451 873.534 164.54C873.534 163.954 873.407 163.437 873.153 162.987C872.906 162.538 872.564 162.213 872.128 162.011C871.698 161.802 871.067 161.698 870.234 161.698ZM877.314 155.38H879.091V169.022H877.314V155.38ZM885.966 160.019C887.333 160.019 888.469 160.461 889.374 161.347C890.279 162.226 890.732 163.332 890.732 164.667C890.732 165.963 890.273 167.04 889.355 167.899C888.437 168.752 887.281 169.179 885.888 169.179C884.54 169.179 883.414 168.746 882.509 167.88C881.604 167.007 881.151 165.92 881.151 164.618C881.151 163.303 881.607 162.209 882.519 161.337C883.437 160.458 884.586 160.019 885.966 160.019ZM885.868 161.62C885.015 161.62 884.316 161.9 883.769 162.46C883.222 163.02 882.948 163.733 882.948 164.599C882.948 165.458 883.228 166.161 883.788 166.708C884.348 167.248 885.068 167.519 885.946 167.519C886.819 167.519 887.532 167.245 888.085 166.698C888.645 166.145 888.925 165.438 888.925 164.579C888.925 163.726 888.635 163.02 888.056 162.46C887.476 161.9 886.747 161.62 885.868 161.62ZM897.792 160.038H899.794L893.437 173.603H891.454L894.511 167.099L891.034 160.038H893.056L895.478 165.106L897.792 160.038ZM908.31 164.687H901.991C902.037 165.546 902.323 166.229 902.851 166.737C903.385 167.245 904.071 167.499 904.911 167.499C906.083 167.499 907.164 167.134 908.153 166.405V168.144C907.607 168.508 907.063 168.769 906.523 168.925C905.989 169.081 905.36 169.159 904.638 169.159C903.648 169.159 902.847 168.954 902.235 168.544C901.624 168.134 901.132 167.584 900.761 166.894C900.396 166.197 900.214 165.393 900.214 164.481C900.214 163.114 900.601 162.004 901.376 161.151C902.151 160.292 903.157 159.862 904.394 159.862C905.585 159.862 906.536 160.279 907.245 161.112C907.955 161.946 908.31 163.062 908.31 164.462V164.687ZM902.03 163.622H906.552C906.506 162.912 906.295 162.366 905.917 161.981C905.54 161.597 905.032 161.405 904.394 161.405C903.756 161.405 903.232 161.597 902.821 161.981C902.418 162.366 902.154 162.912 902.03 163.622ZM917.9 164.687H911.581C911.627 165.546 911.913 166.229 912.441 166.737C912.974 167.245 913.661 167.499 914.501 167.499C915.673 167.499 916.754 167.134 917.743 166.405V168.144C917.196 168.508 916.653 168.769 916.112 168.925C915.579 169.081 914.95 169.159 914.228 169.159C913.238 169.159 912.437 168.954 911.825 168.544C911.213 168.134 910.722 167.584 910.351 166.894C909.986 166.197 909.804 165.393 909.804 164.481C909.804 163.114 910.191 162.004 910.966 161.151C911.741 160.292 912.747 159.862 913.984 159.862C915.175 159.862 916.125 160.279 916.835 161.112C917.545 161.946 917.9 163.062 917.9 164.462V164.687ZM911.62 163.622H916.142C916.096 162.912 915.885 162.366 915.507 161.981C915.129 161.597 914.622 161.405 913.984 161.405C913.346 161.405 912.821 161.597 912.411 161.981C912.008 162.366 911.744 162.912 911.62 163.622ZM919.394 168.378V166.464C919.895 166.815 920.406 167.102 920.927 167.323C921.454 167.538 921.897 167.646 922.255 167.646C922.626 167.646 922.945 167.554 923.212 167.372C923.479 167.19 923.612 166.972 923.612 166.718C923.612 166.457 923.525 166.243 923.349 166.073C923.179 165.897 922.808 165.647 922.235 165.321C921.09 164.683 920.338 164.14 919.98 163.69C919.628 163.235 919.452 162.74 919.452 162.206C919.452 161.516 919.719 160.953 920.253 160.517C920.793 160.08 921.487 159.862 922.333 159.862C923.212 159.862 924.114 160.11 925.038 160.604V162.362C923.984 161.724 923.121 161.405 922.45 161.405C922.105 161.405 921.825 161.48 921.61 161.63C921.402 161.773 921.298 161.965 921.298 162.206C921.298 162.414 921.392 162.613 921.581 162.802C921.776 162.991 922.115 163.218 922.597 163.485L923.232 163.847C924.729 164.693 925.478 165.631 925.478 166.659C925.478 167.395 925.188 168 924.609 168.476C924.036 168.944 923.297 169.179 922.392 169.179C921.858 169.179 921.383 169.123 920.966 169.013C920.549 168.896 920.025 168.684 919.394 168.378ZM834.784 201.38H840.839V203.118H836.562V206.565C836.698 206.552 836.838 206.546 836.982 206.546C838.303 206.546 839.39 206.95 840.243 207.757C841.096 208.558 841.523 209.58 841.523 210.823C841.523 212.106 841.099 213.151 840.253 213.958C839.413 214.759 838.323 215.159 836.982 215.159C835.875 215.159 834.801 214.892 833.759 214.358V212.347C834.742 212.985 835.702 213.304 836.64 213.304C837.46 213.304 838.147 213.066 838.7 212.591C839.26 212.109 839.54 211.52 839.54 210.823C839.54 210.101 839.237 209.498 838.632 209.017C838.026 208.528 837.271 208.284 836.366 208.284C835.592 208.284 835.064 208.349 834.784 208.479V201.38ZM849.726 215.022V201.36H854.052C855.354 201.36 856.392 201.712 857.167 202.415C857.942 203.118 858.329 204.062 858.329 205.247C858.329 206.041 858.131 206.744 857.734 207.356C857.336 207.968 856.793 208.414 856.103 208.694C855.413 208.968 854.423 209.104 853.134 209.104H851.689V215.022H849.726ZM853.71 203.099H851.689V207.366H853.827C854.622 207.366 855.234 207.181 855.663 206.81C856.093 206.432 856.308 205.895 856.308 205.198C856.308 203.799 855.442 203.099 853.71 203.099ZM861.689 206.038V208.099L861.786 207.942C862.646 206.556 863.505 205.862 864.364 205.862C865.035 205.862 865.735 206.201 866.464 206.878L865.526 208.44C864.908 207.854 864.335 207.562 863.808 207.562C863.235 207.562 862.737 207.835 862.314 208.382C861.897 208.929 861.689 209.576 861.689 210.325V215.022H859.901V206.038H861.689ZM871.503 206.019C872.87 206.019 874.006 206.461 874.911 207.347C875.816 208.226 876.269 209.332 876.269 210.667C876.269 211.963 875.81 213.04 874.892 213.899C873.974 214.752 872.818 215.179 871.425 215.179C870.077 215.179 868.951 214.746 868.046 213.88C867.141 213.007 866.689 211.92 866.689 210.618C866.689 209.303 867.144 208.209 868.056 207.337C868.974 206.458 870.123 206.019 871.503 206.019ZM871.405 207.62C870.553 207.62 869.853 207.9 869.306 208.46C868.759 209.02 868.485 209.733 868.485 210.599C868.485 211.458 868.765 212.161 869.325 212.708C869.885 213.248 870.605 213.519 871.484 213.519C872.356 213.519 873.069 213.245 873.622 212.698C874.182 212.145 874.462 211.438 874.462 210.579C874.462 209.726 874.172 209.02 873.593 208.46C873.013 207.9 872.284 207.62 871.405 207.62ZM879.062 202.259C879.355 202.259 879.605 202.363 879.814 202.571C880.022 202.773 880.126 203.017 880.126 203.304C880.126 203.603 880.025 203.854 879.823 204.056C879.628 204.257 879.381 204.358 879.081 204.358C878.801 204.358 878.554 204.254 878.339 204.046C878.124 203.838 878.017 203.59 878.017 203.304C878.017 203.03 878.121 202.789 878.329 202.581C878.544 202.366 878.788 202.259 879.062 202.259ZM878.222 206.038H879.999V216.302C879.999 217.858 879.4 218.958 878.202 219.603L876.884 218.304C877.294 218.16 877.62 217.91 877.86 217.552C878.101 217.194 878.222 216.777 878.222 216.302V206.038ZM890.292 210.687H883.974C884.019 211.546 884.306 212.229 884.833 212.737C885.367 213.245 886.054 213.499 886.894 213.499C888.066 213.499 889.146 213.134 890.136 212.405V214.144C889.589 214.508 889.045 214.769 888.505 214.925C887.971 215.081 887.343 215.159 886.62 215.159C885.631 215.159 884.83 214.954 884.218 214.544C883.606 214.134 883.114 213.584 882.743 212.894C882.379 212.197 882.196 211.393 882.196 210.481C882.196 209.114 882.584 208.004 883.359 207.151C884.133 206.292 885.139 205.862 886.376 205.862C887.568 205.862 888.518 206.279 889.228 207.112C889.937 207.946 890.292 209.062 890.292 210.462V210.687ZM884.013 209.622H888.534C888.489 208.912 888.277 208.366 887.9 207.981C887.522 207.597 887.014 207.405 886.376 207.405C885.738 207.405 885.214 207.597 884.804 207.981C884.4 208.366 884.137 208.912 884.013 209.622ZM898.964 212.923V214.681C898.072 215.013 897.2 215.179 896.347 215.179C894.941 215.179 893.818 214.762 892.978 213.929C892.144 213.095 891.728 211.979 891.728 210.579C891.728 209.166 892.135 208.027 892.948 207.161C893.762 206.295 894.833 205.862 896.161 205.862C896.624 205.862 897.037 205.908 897.401 205.999C897.773 206.084 898.228 206.246 898.769 206.487V208.382C897.87 207.809 897.037 207.522 896.269 207.522C895.468 207.522 894.81 207.806 894.296 208.372C893.782 208.932 893.525 209.648 893.525 210.521C893.525 211.438 893.801 212.168 894.355 212.708C894.915 213.248 895.666 213.519 896.61 213.519C897.294 213.519 898.079 213.32 898.964 212.923ZM899.735 207.464L903.075 204.183V206.038H905.917V207.64H903.075V212.044C903.075 213.073 903.502 213.587 904.355 213.587C904.993 213.587 905.666 213.372 906.376 212.942V214.603C905.693 214.987 904.947 215.179 904.14 215.179C903.326 215.179 902.649 214.941 902.109 214.466C901.939 214.323 901.799 214.163 901.689 213.987C901.578 213.805 901.484 213.571 901.405 213.284C901.334 212.991 901.298 212.438 901.298 211.624V207.64H899.735V207.464ZM907.216 214.378V212.464C907.717 212.815 908.228 213.102 908.749 213.323C909.276 213.538 909.719 213.646 910.077 213.646C910.448 213.646 910.767 213.554 911.034 213.372C911.301 213.19 911.435 212.972 911.435 212.718C911.435 212.457 911.347 212.243 911.171 212.073C911.002 211.897 910.631 211.647 910.058 211.321C908.912 210.683 908.16 210.14 907.802 209.69C907.45 209.235 907.275 208.74 907.275 208.206C907.275 207.516 907.541 206.953 908.075 206.517C908.616 206.08 909.309 205.862 910.155 205.862C911.034 205.862 911.936 206.11 912.86 206.604V208.362C911.806 207.724 910.943 207.405 910.273 207.405C909.928 207.405 909.648 207.48 909.433 207.63C909.224 207.773 909.12 207.965 909.12 208.206C909.12 208.414 909.215 208.613 909.403 208.802C909.599 208.991 909.937 209.218 910.419 209.485L911.054 209.847C912.551 210.693 913.3 211.631 913.3 212.659C913.3 213.395 913.01 214 912.431 214.476C911.858 214.944 911.119 215.179 910.214 215.179C909.68 215.179 909.205 215.123 908.788 215.013C908.372 214.896 907.847 214.684 907.216 214.378Z" fill="#1B5694"/>
<path d="M58.9746 309.254C69.7442 309.254 78.4746 300.524 78.4746 289.754C78.4746 278.985 69.7442 270.254 58.9746 270.254C48.2051 270.254 39.4746 278.985 39.4746 289.754C39.4746 300.524 48.2051 309.254 58.9746 309.254Z" fill="#DCF1FA"/>
<path d="M64.8496 251.091V241.004H55.0996V251.091C46.5211 252.186 38.5488 256.098 32.4336 262.213C26.3184 268.328 22.4063 276.301 21.311 284.879H11.2246V294.629H21.311C22.4047 303.208 26.3163 311.182 32.4318 317.297C38.5473 323.413 46.5204 327.324 55.0996 328.418V338.504H64.8496V328.418C73.4291 327.325 81.4027 323.414 87.5183 317.298C93.634 311.182 97.5453 303.209 98.6382 294.629H108.725V284.879H98.6382C97.5445 276.3 93.6329 268.327 87.5174 262.211C81.4019 256.096 73.4288 252.184 64.8496 251.091ZM59.9746 319.004C43.8432 319.004 30.7246 305.886 30.7246 289.754C30.7246 273.623 43.8432 260.504 59.9746 260.504C76.106 260.504 89.2246 273.623 89.2246 289.754C89.2246 305.886 76.106 319.004 59.9746 319.004Z" fill="#DCF1FA"/>
<path d="M326.902 153.779L326.649 174.19L306.238 173.937L306.491 153.526L326.902 153.779ZM318.316 165.647L133.279 346.153L129.788 342.574L314.825 162.068L318.316 165.647Z" fill="#DCF1FA"/>
<path d="M882.506 353.505L882.253 333.094L861.842 333.347L862.095 353.758L882.506 353.505ZM685.391 164.71L870.428 345.216L873.92 341.637L688.882 161.131L685.391 164.71Z" fill="#DCF1FA"/>
<path d="M512.432 353.442L512.178 333.031L491.768 333.284L492.021 353.695L512.432 353.442ZM315.317 164.647L500.354 345.153L503.845 341.574L318.808 161.068L315.317 164.647Z" fill="#DCF1FA"/>
<path d="M696.976 153.779L696.723 174.19L676.313 173.937L676.566 153.526L696.976 153.779ZM688.39 165.647L503.353 346.153L499.862 342.574L684.899 162.068L688.39 165.647Z" fill="#DCF1FA"/>
<path d="M1067.54 155.205L1067.29 175.616L1046.88 175.363L1047.13 154.952L1067.54 155.205ZM1058.96 167.073L873.92 347.579L870.428 344L1055.47 163.494L1058.96 167.073Z" fill="#DCF1FA"/>
<path d="M145.967 339.974L131.643 325.431L117.1 339.755L131.423 354.298L145.967 339.974ZM131.552 337.365L54.9933 336.782L54.9553 341.782L131.514 342.364L131.552 337.365Z" fill="#DCF1FA"/>
<defs>
<filter id="filter0_d_211_198" x="154.965" y="178.02" width="324.869" height="324.869" filterUnits="userSpaceOnUse" color-interpolation-filters="sRGB">
<feFlood flood-opacity="0" result="BackgroundImageFix"/>
<feColorMatrix in="SourceAlpha" type="matrix" values="0 0 0 0 0 0 0 0 0 0 0 0 0 0 0 0 0 0 127 0" result="hardAlpha"/>
<feOffset dy="4"/>
<feGaussianBlur stdDeviation="7.5"/>
<feComposite in2="hardAlpha" operator="out"/>
<feColorMatrix type="matrix" values="0 0 0 0 0 0 0 0 0 0 0 0 0 0 0 0 0 0 0.25 0"/>
<feBlend mode="normal" in2="BackgroundImageFix" result="effect1_dropShadow_211_198"/>
<feBlend mode="normal" in="SourceGraphic" in2="effect1_dropShadow_211_198" result="shape"/>
</filter>
<filter id="filter1_d_211_198" x="340.918" y="8.34082" width="324.869" height="324.869" filterUnits="userSpaceOnUse" color-interpolation-filters="sRGB">
<feFlood flood-opacity="0" result="BackgroundImageFix"/>
<feColorMatrix in="SourceAlpha" type="matrix" values="0 0 0 0 0 0 0 0 0 0 0 0 0 0 0 0 0 0 127 0" result="hardAlpha"/>
<feOffset dy="4"/>
<feGaussianBlur stdDeviation="7.5"/>
<feComposite in2="hardAlpha" operator="out"/>
<feColorMatrix type="matrix" values="0 0 0 0 0 0 0 0 0 0 0 0 0 0 0 0 0 0 0.25 0"/>
<feBlend mode="normal" in2="BackgroundImageFix" result="effect1_dropShadow_211_198"/>
<feBlend mode="normal" in="SourceGraphic" in2="effect1_dropShadow_211_198" result="shape"/>
</filter>
<filter id="filter2_d_211_198" x="526.871" y="178.02" width="324.869" height="324.869" filterUnits="userSpaceOnUse" color-interpolation-filters="sRGB">
<feFlood flood-opacity="0" result="BackgroundImageFix"/>
<feColorMatrix in="SourceAlpha" type="matrix" values="0 0 0 0 0 0 0 0 0 0 0 0 0 0 0 0 0 0 127 0" result="hardAlpha"/>
<feOffset dy="4"/>
<feGaussianBlur stdDeviation="7.5"/>
<feComposite in2="hardAlpha" operator="out"/>
<feColorMatrix type="matrix" values="0 0 0 0 0 0 0 0 0 0 0 0 0 0 0 0 0 0 0.25 0"/>
<feBlend mode="normal" in2="BackgroundImageFix" result="effect1_dropShadow_211_198"/>
<feBlend mode="normal" in="SourceGraphic" in2="effect1_dropShadow_211_198" result="shape"/>
</filter>
<filter id="filter3_d_211_198" x="710.992" y="0.505859" width="324.869" height="324.869" filterUnits="userSpaceOnUse" color-interpolation-filters="sRGB">
<feFlood flood-opacity="0" result="BackgroundImageFix"/>
<feColorMatrix in="SourceAlpha" type="matrix" values="0 0 0 0 0 0 0 0 0 0 0 0 0 0 0 0 0 0 127 0" result="hardAlpha"/>
<feOffset dy="4"/>
<feGaussianBlur stdDeviation="7.5"/>
<feComposite in2="hardAlpha" operator="out"/>
<feColorMatrix type="matrix" values="0 0 0 0 0 0 0 0 0 0 0 0 0 0 0 0 0 0 0.25 0"/>
<feBlend mode="normal" in2="BackgroundImageFix" result="effect1_dropShadow_211_198"/>
<feBlend mode="normal" in="SourceGraphic" in2="effect1_dropShadow_211_198" result="shape"/>
</filter>
<linearGradient id="paint0_linear_211_198" x1="274.217" y1="336.455" x2="274.217" y2="544.959" gradientUnits="userSpaceOnUse">
<stop stop-color="#FAFCFF"/>
<stop offset="1" stop-color="#DCF1FA"/>
</linearGradient>
<linearGradient id="paint1_linear_211_198" x1="460.17" y1="166.775" x2="460.17" y2="375.279" gradientUnits="userSpaceOnUse">
<stop stop-color="#FAFCFF"/>
<stop offset="1" stop-color="#DCF1FA"/>
</linearGradient>
<linearGradient id="paint2_linear_211_198" x1="646.123" y1="336.455" x2="646.123" y2="544.959" gradientUnits="userSpaceOnUse">
<stop stop-color="#FAFCFF"/>
<stop offset="1" stop-color="#DCF1FA"/>
</linearGradient>
<linearGradient id="paint3_linear_211_198" x1="830.244" y1="158.94" x2="830.244" y2="367.444" gradientUnits="userSpaceOnUse">
<stop stop-color="#FAFCFF"/>
<stop offset="1" stop-color="#DCF1FA"/>
</linearGradient>
</defs>
</svg>
